<?xml version="1.0" encoding="utf-8"?>
<!-- Generator: Adobe Illustrator 22.1.0, SVG Export Plug-In . SVG Version: 6.00 Build 0)  -->
<svg version="1.1" id="Ebene_1" xmlns="http://www.w3.org/2000/svg" xmlns:xlink="http://www.w3.org/1999/xlink" x="0px" y="0px"
	 viewBox="0 0 80 80" style="enable-background:new 0 0 80 80;" xml:space="preserve">
<style type="text/css">
	.st0{clip-path:url(#SVGID_2_);fill:#F94F50;}
	.st1{fill:#F94F50;}
</style>
<g>
	<g>
		<defs>
			<rect id="SVGID_1_" x="2" y="19" width="74.9" height="43"/>
		</defs>
		<clipPath id="SVGID_2_">
			<use xlink:href="#SVGID_1_"  style="overflow:visible;"/>
		</clipPath>
		<path class="st0" d="M35.7,19.1C20.8,19.8,7,28.2,2.1,42.7C2,43.1,2,43.4,2.1,43.8c-0.1,0.5,0,1,0.3,1.6
			c16.3,25,55.1,19.1,72.8-1.4c0.1-0.1,0.2-0.3,0.3-0.4c0.6-0.7,0.8-1.6,0.3-2.6C67.9,26.2,52.1,18.3,35.7,19.1L35.7,19.1z
			 M6.7,43.6C10.3,33,19.5,26.7,29.9,24.5c-6.5,2.6-11.7,8.2-12.5,15.5c-0.6,6.3,2.1,12.1,6.7,15.9C17.3,54,11.1,50,6.7,43.6
			L6.7,43.6z M36.3,56.2c-8.2,0.5-15-7.5-14.7-15.3c0.3-6.5,5.4-11.2,11.2-13c1.9-0.1,3.8-0.1,5.8,0c0.2,0,0.4,0,0.5,0
			c7,1.9,12.5,8,11.4,15.8C49.5,50.6,43.1,55.8,36.3,56.2L36.3,56.2z M48.9,55.1c3.1-3,5.2-7,5.8-11.1c1.4-10.2-6.3-18.3-15.5-20.4
			c0,0,0-0.1-0.1-0.1c13,0.2,25.2,7,31.8,18.3C65.3,47.9,57.4,52.6,48.9,55.1L48.9,55.1z M48.9,55.1"/>
	</g>
	<path class="st1" d="M45.2,40.2c-0.8-2.3-2-4.3-4.1-5.5c-0.5-0.3-1-0.5-1.6-0.7c-0.7-0.3-1.4-0.4-2.1-0.5c0.1,0.1,0.1,0.2,0.2,0.3
		c0.6,1.1,0.7,2.3,0.5,3.5c-0.1,0.9-0.6,2-1.4,2.6c-1.1,0.9-2.4,1.3-3.8,0.9c-1.4-0.4-2.6-1.4-3.6-2.5c-0.2-0.2-0.4-0.5-0.5-0.8
		c-1.9,2.3-2.3,5.4,0,8.2c2.7,3.4,7.9,4.6,11.9,3c0.1,0,0.1-0.1,0.2-0.1c0.4-0.1,0.8-0.2,1.1-0.5c0.2-0.1,0.4-0.3,0.6-0.5
		c1.5-1.6,2.9-3.6,2.7-5.9c0,0,0-0.1,0-0.1C45.4,41.1,45.3,40.7,45.2,40.2L45.2,40.2z M45.2,40.2"/>
</g>
</svg>
