<?xml version="1.0" encoding="utf-8"?>
<!-- Generator: Adobe Illustrator 22.1.0, SVG Export Plug-In . SVG Version: 6.00 Build 0)  -->
<svg version="1.1" id="Ebene_1" xmlns="http://www.w3.org/2000/svg" xmlns:xlink="http://www.w3.org/1999/xlink" x="0px" y="0px"
	 viewBox="0 0 80 80" style="enable-background:new 0 0 80 80;" xml:space="preserve">
<style type="text/css">
	.st0{fill:#EA5053;}
</style>
<g>
	<g>
		<path class="st0" d="M47.6,59.5c0.1,0,0.2,0.1,0.3,0.1c0.9,1.5,2.1,2.8,3.1,4.2c0.7,1,1.4,2.6,2.2,3.7c0,0.7,0.6,1.6,1.4,1.5
			c14.6-1.2,19.2-21.8,18.8-33.4c-0.2-6.5-2.8-13.1-4.8-19.2c-0.8-2.5-2.8-10.2-6-11.6c0.4-0.9-0.1-2.3-1.4-2.1
			c-4.5,0.7-8.9,1.8-13.2,3c-2.1,0.6-7,1.2-8,3.6c-0.8-0.1-1.7,0.5-1.5,1.6c1.8,7.9,3.8,15.8,6.3,23.5c0.2,0.6,0.6,1,1.1,1.2
			c0,1,1,1.9,2.1,1.2c2.6-1.5,5.3-2.1,8.3-2.2c0,0.2,0.1,0.4,0.4,0.5c5.9,2.2-7.4,19.6-9.7,21.9c-0.4,0.4-0.6,1.1-0.3,1.7
			C46.9,59,47.1,59.3,47.6,59.5L47.6,59.5z M69.5,44C69.5,44,69.5,44,69.5,44c-2.6-1.4-5.6-3.4-8.6-4c0.4-1.8,0.3-3.4-0.4-4.6
			c3.1,1.3,6.3,2.5,9.5,3.6C69.9,40.8,69.8,42.4,69.5,44L69.5,44z M61,5.6c0.4,1.9,0.9,3.9,1.5,5.9c-2-1.3-4.1-2.5-6.3-3.5
			c-0.5-0.2-0.9-0.4-1.5-0.7C56.8,6.8,58.9,6.2,61,5.6L61,5.6z M49.1,9C50,8.7,51,8.4,51.9,8.1c1.4,0.4,2.9,0.8,4.3,1.4
			c2.2,0.9,4.3,2.1,6.3,3.3c0.2,0.1,0.4,0.1,0.5,0c0.7,2.1,1.5,4.2,2.2,6.3c-3.2-1.4-6.2-3.1-9.3-4.8c-2.8-1.6-5.9-3.5-9.1-4.4
			C47.6,9.5,48.5,9.2,49.1,9L49.1,9z M44.3,10.9c3.5,1.8,7.4,3.1,10.9,4.9c3.5,1.7,6.9,3.4,10.5,4.8c0.7,1.8,1.3,3.5,1.9,5.3
			c-4.4-2.1-8.6-4.5-12.8-6.7c-2.4-1.3-7.8-5.4-10.7-4.3c-0.9,0.3-0.6,1.5,0.3,1.5c1.3,0.1,3.1,1.2,4.4,1.7c2.4,1,4.7,2.2,7,3.3
			c4.1,2,8.1,4.2,12.3,5.9c0.3,0.9,0.6,1.9,0.8,2.8c0.2,1,0.4,1.9,0.6,2.9c-4.2-2.2-8.5-4.4-12.7-6.6c-3.8-2-7.8-4.7-12-6
			c-1-3.1-2-6.1-3.2-9.1C42.4,11.4,43.3,11.2,44.3,10.9L44.3,10.9z M48.6,33c-0.3-1.1-0.7-2.1-1-3.2c1.3,0.6,2.6,1.3,3.9,1.9
			C50.5,32,49.5,32.4,48.6,33L48.6,33z M54.7,30.8c-2.4-1.2-4.8-2.4-7.2-3.6c-0.3-0.1-0.5-0.1-0.7-0.1c-0.4-1.4-0.8-2.8-1.2-4.1
			c3.4,1.8,7.1,3.2,10.5,4.9c4.5,2.2,8.9,4.3,13.5,6.3c0.2,1.2,0.3,2.5,0.3,3.7c-3.5-1.5-6.9-3-10.2-4.6c0.2-0.5,0.2-0.8,0.1-1.3
			c-0.2-0.8-1.1-1.3-1.9-1.3C56.8,30.6,55.8,30.7,54.7,30.8L54.7,30.8z M60.4,41.7c1.1,0.4,2.2,0.7,3.3,1.1c1.8,0.7,3.5,1.5,5.2,2.3
			c0.1,0.1,0.3,0.1,0.4,0c-0.3,1.5-0.7,2.9-1.2,4.3c-1.5-0.7-2.9-1.4-4.4-2c-1.5-0.6-3.5-1.6-5.1-1.5C59.3,44.6,60,43.1,60.4,41.7
			L60.4,41.7z M58,47.2c0.1,0,0.1,0.1,0.2,0.1c1.4,0.7,3.1,0.8,4.6,1.3c1.7,0.6,3.4,1.3,5,2c-0.5,1.2-1,2.4-1.6,3.5
			c-2-0.7-3.9-1.5-5.8-2.3c-1.3-0.6-2.6-1.4-4-1.8C56.9,49.2,57.4,48.2,58,47.2L58,47.2z M60.3,53.5c1.7,0.7,3.5,1.3,5.2,1.8
			c-0.8,1.4-1.8,2.7-2.8,4c-1.7-0.6-3.3-1.3-5-2c-1.5-0.7-3.2-1.6-4.9-2.1c0.8-1.1,1.6-2.3,2.5-3.6C56.8,52.5,58.7,53,60.3,53.5
			L60.3,53.5z M51.5,56.9c1.9,1,4.1,1.5,6,2.3c1.3,0.5,2.6,1,4,1.4c-1.6,1.7-3.4,3.3-5.5,4.6c-0.5-1-1.3-1.8-2-2.6
			c-1.2-1.4-2.5-2.8-3.9-4.1C50.6,58,51.1,57.5,51.5,56.9L51.5,56.9z M51.5,56.9"/>
		<path class="st0" d="M13.3,65.7c1,1.5,2.1,2.9,3.2,4.4c1.3,1.6,2.3,3.4,3.8,4.8c0,0,0,0,0.1,0c0,0.7,0.6,1.4,1.5,1.4
			c6.1,0.2,10.7-7.7,12.3-12.6c1.7-5.1,2.5-10.7,1-15.8c0.4-0.2,0.8-0.6,0.6-1.2c-2.9-10.8-6.6-21.2-9-32.1
			c-0.4-1.7-2.4-1.5-3.2-0.3c-0.1,0-0.1,0-0.2,0c-2,0.5-4,1.1-6,1.7c-0.2,0-0.4-0.1-0.5-0.1c-0.4-0.1-0.7,0.2-0.8,0.5
			c-1.4,0.5-2.8,1-4.3,1.5c-2.2,0.9-5.7,2-6.9,4.4c-0.7-0.2-1.3,0.6-1,1.2c-0.4,0-0.9,0.1-1.2,0.5c-1.7,2.2,0.9,7.7,1.5,10.1
			c1.2,4.5,2.3,9.1,3.8,13.5c0.3,0.9,1.1,1.3,1.8,1.2c0.1,0,0.1,0,0.2,0c3.9,0.2,7.6-1.3,11.2-2.7c0.2,0.8,0.3,1.7,0.3,2.6
			c-0.2,0.2-0.2,0.5-0.1,0.8c-0.7,5.2-5.6,10.8-9,13.2C11.2,63.7,12,65.5,13.3,65.7L13.3,65.7z M22.7,72.6c-0.4-0.8-1-1.6-1.6-2.3
			c1.1,0.4,2.2,0.8,3.3,1.3C23.8,71.9,23.2,72.2,22.7,72.6L22.7,72.6z M32.5,52.1c-1.5-0.9-3-1.7-4.6-2.4c-0.8-0.4-1.8-0.7-2.7-1
			c0.1-1.7-0.3-3.1-1.5-4.1c0-0.1,0.1-0.2,0.1-0.3c0-0.4,0-0.6,0-0.9c2.9,1.3,5.7,2.7,8.5,4C32.5,49,32.5,50.5,32.5,52.1L32.5,52.1z
			 M23.8,17c0.2,0.8,0.4,1.6,0.6,2.5c-0.9-0.6-1.7-1.1-2.7-1.7C22.4,17.6,23.1,17.3,23.8,17L23.8,17z M20,18.6
			c0.3,0.1,0.6,0.2,0.8,0.3c1.4,0.6,2.7,1.4,3.9,2.3c0,0,0.1,0,0.1,0.1c0.3,1,0.5,1.9,0.8,2.9c-2.1-1.3-4.3-2.5-6.5-3.5
			c-0.6-0.3-1.2-0.6-1.9-0.9C18.1,19.3,19,18.9,20,18.6L20,18.6z M14.1,20.9c0.1-0.1,0.3-0.1,0.4-0.2c1.2,0.5,2.6,0.9,3.8,1.5
			c2.4,1.1,4.9,2.2,7.1,3.6c0.3,0.2,0.5,0.1,0.7,0c0.4,1.3,0.8,2.7,1.3,4c-3.1-1.5-6.2-2.9-9.2-4.5c-1.8-0.9-4-2.3-6.1-3.3
			C12.8,21.6,13.4,21.2,14.1,20.9L14.1,20.9z M9.4,23.6c2.4,1.4,5.6,2.3,8,3.3c3.6,1.6,7.1,3.3,10.7,4.7c0.4,1.1,0.8,2.2,1.2,3.3
			c-3.3-2.4-6.9-4.2-10.6-5.9c-3.4-1.6-6.7-3.4-10-5.1C8.9,23.9,9.2,23.8,9.4,23.6L9.4,23.6z M15.6,29.7c4.9,2.1,9.7,4.2,14.1,7.2
			c0.1,0.1,0.2,0.1,0.3,0.1c0.4,0.9,0.7,1.9,1.1,2.8c-4-2.2-8.2-4-12.3-6.1c-4.1-2-7.8-4.6-11.8-6.6c-0.2-0.7-0.4-1.2-0.7-1.8
			C9.1,27.3,12.6,28.5,15.6,29.7L15.6,29.7z M8.4,33.9c-0.2-0.8-0.4-2.1-0.7-3.5c2.7,2,6.4,3.3,9.2,4.5c4.9,2.2,9.8,4.3,14.7,6.4
			c0.2,0.5,0.4,1.1,0.6,1.6c-0.4,0.2-0.7,0.6-0.6,1.1c0.1,0.6,0.3,1.2,0.4,1.8c-3.5-1.8-7.1-3.6-10.6-5.5c-3.8-2-7.7-4.9-11.8-6.2
			c-0.5-0.2-0.9,0.2-1,0.6C8.6,34.5,8.5,34.2,8.4,33.9L8.4,33.9z M11.7,46.2c-0.6-2-1.1-3.9-1.6-5.9c1.1,0.5,2.2,0.9,3.3,1.3
			c1.4,0.6,2.8,1.3,4.2,2.1C15.7,44.7,13.8,45.7,11.7,46.2L11.7,46.2z M18.5,43.3c-1.2-1-2.7-1.8-4.1-2.5c-1.5-0.8-3.1-1.8-4.8-2.3
			c-0.2-0.9-0.5-1.8-0.7-2.7c2.8,2.6,7.2,4,10.6,5.6c0.5,0.2,1,0.5,1.5,0.7C20.2,42.5,19.3,42.9,18.5,43.3L18.5,43.3z M24.9,50.4
			c1,0.2,2,0.3,3,0.7c1.6,0.6,3.1,1.4,4.6,2.3c-0.1,2.1-0.4,4.2-0.9,6.3c-1.3-0.8-2.6-1.5-3.9-2.1c-1.5-0.7-3.2-1.6-4.9-1.8
			C23.7,54,24.5,52.1,24.9,50.4L24.9,50.4z M22.1,57C22.1,57,22.1,57,22.1,57c1.4,1,3.3,1.4,4.9,2c1.5,0.6,2.9,1.3,4.3,2
			c-0.2,0.6-0.4,1.3-0.6,1.9c-2-0.6-3.9-1.3-5.8-2c-1.4-0.5-2.8-1.2-4.2-1.7C21.1,58.5,21.6,57.8,22.1,57L22.1,57z M19.4,60.9
			c1.5,0.7,3.2,1.2,4.8,1.7c1.9,0.6,3.9,1.2,5.8,1.7c-0.6,1.2-1.2,2.4-2,3.5c-2-0.8-3.9-1.6-5.8-2.6c-1.5-0.7-2.9-1.7-4.3-2.6
			C18.4,62.1,18.9,61.5,19.4,60.9L19.4,60.9z M16.2,64.4c1.6,1,3.5,1.8,5.2,2.6c1.9,0.9,3.8,1.5,5.7,2.2c-0.4,0.5-0.9,1-1.3,1.4
			c-2.8-1.4-5.6-2.9-8.5-4c-0.6-0.5-1.2-1-1.8-1.5C15.7,64.8,15.9,64.6,16.2,64.4L16.2,64.4z M16.2,64.4"/>
	</g>
</g>
</svg>
