<?xml version="1.0" encoding="utf-8"?>
<!-- Generator: Adobe Illustrator 22.1.0, SVG Export Plug-In . SVG Version: 6.00 Build 0)  -->
<svg version="1.1" id="Ebene_1" xmlns="http://www.w3.org/2000/svg" xmlns:xlink="http://www.w3.org/1999/xlink" x="0px" y="0px"
	 viewBox="0 0 80 80" style="enable-background:new 0 0 80 80;" xml:space="preserve">
<style type="text/css">
	.st0{fill:#F94F50;}
</style>
<g>
	<g>
		<path class="st0" d="M31.5,3.9c-0.4,0.2-0.7,0.5-0.8,0.9c-0.2,0-0.4-0.1-0.6-0.1c-1-0.1-2,0.7-2.2,1.7c-0.6,2.8-2.3,28.3-0.1,28
			c-0.4,0.1-0.4,0.7,0,0.8c0,0,0,0,0.1,0c0.2,0,0.4,0,0.5-0.2c1.2-1.7,1.7-3.4,2-5.4c2.1-3.5,4.9-6.8,7.4-10c2.9-3.9,7-7.5,9.7-11.6
			c2.5,0.2,4.9,0.5,7.4,0.9c-1.6,2.4-1.3,7.1-1,10.7c-5.1,4.2-8.9,10.3-12.8,15.5c-4.5,6.1-8.9,12.3-13.1,18.5
			c-1.3-1.6-2.6-3.1-4-4.7c10.9-11.3,20.5-24.6,29.7-37.3c0.9-1.2-1-2.6-2-1.6C43.9,18.6,37.4,28,30.7,37.2c-0.2-0.8-0.9-1.5-2-1.5
			c-5.9,0-11.8,0.2-17.6,0.6c-0.5,0-0.8,0.2-1.1,0.5c-1,0.6-1.6,1.7-0.8,2.9C17.6,51.9,29.2,62,38,73.9c0.4,0.6,1,0.8,1.6,0.7
			c-0.7,1.3,0.7,3.3,2.1,2.2c7.3-5.4,12.4-13.4,17.9-20.4c2.3-3,4.6-5.9,6.9-8.9c1-1.3,2-2.5,3-3.7c1.1-1.3,1-1.5,0.5-1.5
			c0.6-0.3,0.9-0.7,1.1-1.3c0.5-1.3-1-2.7-2.3-2.3c-4.4,1.5-7.7,8.2-10.4,11.7C52.7,58.1,47.2,65.8,40.9,73c0-0.2-0.1-0.4-0.2-0.6
			c-1.5-2.8-3.3-5.6-5.1-8.3c4.4-4.3,8.6-8.8,12.6-13.5c2.8-3.3,7.4-7.8,8.2-12.2c0.7,0.2,1.5,0.3,2.3,0.3
			c-3.1,3.6-5.1,8.8-7.6,12.7c-3.5,5.6-7.3,11.3-12.2,15.9c-0.7,0.6,0.2,1.9,1,1.3c4.7-3.6,8.2-8.3,11.6-13
			c3.5-4.8,8.7-11,10.4-16.9c2.2,0.1,4.5,0.3,6.7,0.1c2.1-0.1,2.1-3,0-3.2c-2.4-0.2-4.9-0.5-7.3-0.7c-0.9-0.1-2-0.3-3-0.4
			c1-3.6,0-8.5,0.1-12.2c0-3.5,1.6-10.5-0.6-13.5c-0.1-0.1-0.1-0.1-0.2-0.2c0.9-0.9,1-2.7-0.7-3.1c-4.5-1.1-9.1-1.7-13.7-2.1
			C39.6,3.1,34.7,2.2,31.5,3.9L31.5,3.9z M15.1,39.6c2.1,0.1,4.3,0.2,6.4,0.3c-1.1,1-2,2.3-2.6,3.6C17.7,42.2,16.4,40.9,15.1,39.6
			L15.1,39.6z M20,44.7c0.9-1.8,2-3.4,3.7-4.7c1.6,0,3.3,0.1,4.9,0.1c-1.9,2.6-3.9,5.1-5.9,7.6C21.8,46.6,20.9,45.7,20,44.7L20,44.7
			z M55.6,34.8c-0.1,0.1-0.3,0.2-0.4,0.3c-0.6,0.6-0.7,1.5-0.3,2.2c-0.1,0.1-0.1,0.1-0.2,0.2c-3.1,4.2-5.6,8.8-8.9,12.9
			c-3.5,4.4-7.2,8.5-11,12.6c-1-1.5-2.1-3-3.2-4.5c4.5-4.8,8.8-9.7,13-14.7c3.2-3.7,7.3-7.8,9.6-12.4C54.4,32.7,54.9,33.9,55.6,34.8
			L55.6,34.8z M53.9,28.5c-0.2,0-0.5,0.1-0.6,0.3c-4.1,4.6-7.2,10.3-11,15.2c-3.6,4.7-7.5,9.2-11.3,13.7c-0.7-1-1.5-1.9-2.2-2.8
			c4.3-5.3,8.5-10.7,12.7-16.1c3.9-5,8.7-9.7,12.4-14.9C53.8,25.2,53.8,26.8,53.9,28.5L53.9,28.5z M36,8c-0.7,1-1.4,2-2,3
			c-0.9,1.4-1.8,2.8-2.7,4.2c0.2-2.5,0.5-5,0.9-7.5C33.4,8,34.7,8,36,8L36,8z M43.8,7.8c-2.8,2.9-5.1,6.9-7.3,9.8
			c-2.1,2.8-4.3,5.7-5.9,8.8c0.2-2.5,0.3-5,0.5-7.5c1.3-2.1,2.7-4.2,4.1-6.2c1.1-1.6,2.6-3.2,3.6-4.9c1-0.1,2-0.1,2.9-0.1
			C42.4,7.7,43.1,7.8,43.8,7.8L43.8,7.8z M43.8,7.8"/>
	</g>
</g>
</svg>
