<?xml version="1.0" encoding="utf-8"?>
<!-- Generator: Adobe Illustrator 22.1.0, SVG Export Plug-In . SVG Version: 6.00 Build 0)  -->
<svg version="1.1" id="Ebene_1" xmlns="http://www.w3.org/2000/svg" xmlns:xlink="http://www.w3.org/1999/xlink" x="0px" y="0px"
	 viewBox="0 0 161.6 142.5" style="enable-background:new 0 0 161.6 142.5;" xml:space="preserve">
<style type="text/css">
	.st0{clip-path:url(#SVGID_2_);}
</style>
<g>
	<defs>
		<rect id="SVGID_1_" width="161.6" height="142.5"/>
	</defs>
	<clipPath id="SVGID_2_">
		<use xlink:href="#SVGID_1_"  style="overflow:visible;"/>
	</clipPath>
	<path class="st0" d="M110.5,108.2c0.2,0,0.2,0,0.2,0.1c0,0.1,0,0.2-0.1,0.2c0,0,0,0-0.1,0c0,0-0.1-0.1-0.2-0.1v-0.2H110.5z
		 M98.2,109c-0.1-0.1-0.2-0.1-0.2-0.1c-0.2,0.1-0.2,0.2-0.1,0.2h0.2l0.2-0.1L98.2,109z M130.3,109.2c-0.3-0.1-0.5-0.1-0.7-0.1
		l-1-0.1c-0.2,0-0.4,0-0.5,0.1H128c-0.1,0-0.1,0-0.1-0.1c-0.1,0-0.1,0,0-0.1c0.3-0.1,0.5-0.2,0.6-0.4h0.2l0.7-0.1c0.2,0,0.4,0,0.5,0
		c0.2,0,0.4,0,0.7,0.1l0.6,0.3c0,0.1,0,0.2-0.1,0.2c-0.2,0.1-0.2,0.1-0.2,0.1H130.3z M80.9,108.8l-0.2-0.1c-0.1-0.1-0.2-0.2-0.5-0.1
		c-0.2,0.1-0.4,0.2-0.7,0.3c-0.1,0-0.1,0-0.1,0.1l0.2,0.1l0.7,0.2l0.5,0.1c0.2,0,0.3-0.1,0.3-0.2c0,0,0-0.1,0.1-0.1l0.2-0.1
		c0.1,0,0.2,0,0.5,0c-0.2,0-0.3-0.1-0.5-0.1c-0.2,0-0.2-0.1-0.2-0.1H80.9z M84.5,108.9c-0.1,0-0.2-0.1-0.3-0.1c-0.1,0-0.2,0-0.3-0.1
		c-0.1,0-0.2,0-0.4,0c-0.2,0-0.3,0.1-0.4,0.2c0,0,0,0.1,0.1,0.1c0.1,0,0.2,0,0.2,0.1c0.1,0,0.2,0.1,0.2,0.1c0.1,0,0.1,0,0.1,0.1v0.1
		c0.3,0,0.6,0,0.8-0.1c0.2-0.1,0.2-0.2,0.2-0.3v-0.1H84.5z M101.6,109.2c0,0,0.1,0.1,0.2,0c0.1,0,0.2,0,0.2,0
		c-0.1,0-0.1,0.1-0.1,0.1c0,0,0.1,0.1,0.1,0.1l0.1,0.2l0.1,0.1c0.1-0.1,0.2-0.2,0.2-0.3v-0.2c0.1,0,0.1,0,0.1,0.1c0,0,0,0.1,0.1,0.1
		c0.1,0,0.2,0,0.3-0.1c0.2-0.1,0.2-0.3,0-0.4c-0.1,0-0.2-0.1-0.3-0.1h-1l-0.5,0.1c0.1,0,0.2,0,0.3,0c0.1,0,0.2,0,0.2,0V109.2z
		 M109.4,110.1c0.1,0,0.1,0.1,0.2,0c0,0,0.1,0,0.1,0c0.2,0,0.2,0,0.2-0.1c0.1,0,0.1,0,0.1-0.1V110c-0.1,0-0.2-0.1-0.3,0
		C109.6,109.9,109.5,110,109.4,110.1L109.4,110.1z M99.8,109.9v0.3c-0.2,0.1-0.2,0.1,0,0.1c0.1,0,0.2,0,0.2-0.1
		c0.2-0.1,0.2-0.1,0.2-0.1c0.3,0.1,0.5,0,0.5-0.2c-0.1-0.1-0.1-0.2,0-0.4c0.1-0.1,0.1-0.3,0-0.4c0-0.1,0-0.2-0.1-0.2l-0.2,0.2
		c0,0.1-0.1,0.1-0.3,0c-0.1,0-0.2,0-0.3,0.1c0,0.3,0,0.5-0.1,0.5c0,0,0,0.1,0.1,0C99.7,109.9,99.8,109.9,99.8,109.9 M110.8,110.2
		c0.5-0.1,0.7,0,0.7,0.3l0.1,0.1c0.1,0.1,0.2,0.1,0.5,0c0.2,0,0.2-0.1,0.3-0.2c0-0.1-0.1-0.2-0.3-0.3c-0.1,0-0.2,0-0.3-0.1
		c-0.1,0-0.2-0.1-0.4,0c-0.2,0-0.3,0-0.4,0c-0.1,0-0.2,0-0.3,0.1L110.8,110.2z M97.3,110.8c0.1,0,0.2,0.1,0.2,0c0.1,0,0.2,0,0.2,0
		c0.2,0,0.3-0.1,0.6-0.2c0.1,0,0.1-0.1,0.1-0.2h-0.2c-0.2,0-0.3,0-0.3,0.2c0,0,0,0.1-0.1,0.1c-0.1,0-0.1,0-0.1-0.1
		c-0.1-0.1-0.2-0.2-0.3-0.2c-0.1,0-0.1,0.1-0.1,0.2C97.1,110.8,97.2,110.8,97.3,110.8 M96,110.8c0.1,0,0.2,0,0.2,0
		c0.1,0,0.1-0.1,0.1-0.2c0-0.3,0-0.5,0.1-0.7v-0.1c-0.2-0.1-0.2-0.3-0.3-0.4c0-0.1-0.1-0.2-0.1-0.3c-0.1,0-0.1,0-0.1,0.1
		c-0.1,0.1-0.2,0.2-0.3,0.2c-0.1,0-0.3,0-0.5,0c-0.1,0-0.2,0-0.3,0.1c0,0-0.1,0.1-0.2,0.2c0,0.1,0.1,0.2,0.2,0.2H95l0.1-0.1
		c0.2,0,0.4,0,0.5,0c0.1,0,0.1,0.1,0.1,0.2c0,0.1,0,0.1,0.1,0.2c-0.1,0-0.1,0-0.2,0.1c0,0-0.1,0-0.2,0c-0.2,0-0.4,0.1-0.6,0.3
		c0.1,0,0.1,0,0.2,0c0,0,0.1,0.1,0.1,0.1c0,0.1,0.1,0.1,0.2,0.1c0.3-0.1,0.5-0.1,0.5-0.1H96z M124.5,110.7l0.7,0.2
		c0.2,0,0.4,0,0.5,0.1c0.2,0,0.5,0,0.8-0.1h0.1v-0.1c0-0.1,0.1-0.2,0.2-0.3l-0.1-0.1l-0.7-0.1c-0.1,0-0.2-0.1-0.3,0
		c-0.1,0-0.2,0-0.3,0c0,0,0-0.1-0.1,0c-0.1,0-0.1,0.1-0.1,0.1c-0.1,0.1-0.3,0.2-0.6,0.1l-0.2,0.1
		C124.3,110.6,124.4,110.6,124.5,110.7 M120.7,110.9l0.6,0.2c0.4,0,0.6,0,0.8,0.1c0,0,0,0,0.1,0l0.2-0.2c-0.1,0-0.1,0-0.1-0.1
		c-0.1,0-0.1-0.1-0.1-0.2c0-0.1,0-0.1-0.1-0.2c0,0,0-0.1-0.1-0.1c0,0-0.1,0-0.2,0c-0.1,0-0.2,0-0.2,0c-0.2-0.1-0.5-0.1-0.8,0
		c-0.2,0-0.2,0-0.2,0.1v0.1C120.6,110.8,120.6,110.8,120.7,110.9 M94.1,111.3v-0.1c0-0.1-0.1-0.1-0.2-0.1c-0.2,0-0.5,0-0.9-0.1h-0.1
		c-0.2,0-0.4,0-0.6,0c-0.2,0-0.4,0-0.5,0c-0.1,0-0.2,0-0.2,0c-0.1,0-0.2,0-0.2,0c-0.1,0-0.2,0-0.3,0l-0.2,0.3
		c0.2,0.2,0.3,0.2,0.6,0.1c0.4,0,0.7,0.1,0.9,0.2c0.2,0,0.3,0.1,0.4,0c0.1,0,0.2,0,0.3,0H93c0.2-0.1,0.3-0.1,0.6,0
		c0.1,0,0.2,0,0.4,0.1c0.2,0.1,0.4,0.1,0.5,0c-0.2-0.1-0.2-0.1-0.2-0.1S94.2,111.6,94.1,111.3 M138.8,112.1c0.2,0,0.4,0,0.6,0V112
		v-0.1c-0.1,0-0.2-0.1-0.3,0C139,111.9,138.9,111.9,138.8,112.1C138.7,112,138.7,112,138.8,112.1C138.8,112,138.8,112.1,138.8,112.1
		 M93,113.6c0.2-0.1,0.3-0.1,0.6-0.1l-0.1-0.1c0.1-0.1,0-0.1-0.3-0.1c-0.2,0-0.3,0.1-0.3,0.2c-0.1,0-0.1,0.1,0,0.1
		c0.1,0,0.1,0,0.1,0H93z M148,113.8h-0.5c-0.2,0-0.4,0-0.6,0.1c-0.3,0-0.5,0.1-0.6,0.1h-0.2c-0.8,0-1.5,0-1.9,0.1l-1.3,0.1
		c-0.3,0-0.5,0-0.7-0.1c-0.2-0.1-0.4-0.1-0.6,0c-0.2,0.1-0.4,0.1-0.8,0.1c-0.1,0-0.2-0.1-0.3-0.1c-0.1,0-0.2,0-0.3-0.1h-0.5
		c-0.1,0-0.4,0.1-0.9,0.2h-0.4c-0.2,0-0.4,0-0.5,0.1c-0.2,0.1-0.3,0.1-0.5,0c-0.2-0.1-0.3-0.1-0.3,0c-0.2,0-0.4,0-0.8,0.1
		c-0.2,0-0.3,0-0.3-0.1c-0.2-0.1-0.3-0.2-0.5-0.1c-0.1,0-0.2,0.1-0.3,0c-0.2,0-0.3,0-0.5,0l-0.8-0.1c-0.5,0-0.8,0-1,0.1h-0.6
		c-0.3,0-0.5,0-0.6,0.1c-0.1,0-0.2,0.1-0.2,0c-0.1,0-0.2,0-0.2,0c-1.2,0-2.1,0-2.6,0.1c-0.1,0-0.2,0.1-0.4,0.1c-0.2,0-0.3,0-0.4,0.1
		c-0.2,0-0.3,0-0.5,0.1c-0.2,0-0.3,0-0.5,0h-0.2c-0.1,0.1-0.3,0.2-0.6,0.1l-0.5,0.1h-0.3c-0.3-0.1-0.5-0.1-0.7,0
		c-0.1,0.1-0.2,0.1-0.3,0l-0.6-0.1l-0.6-0.1c-0.2,0.1-0.3,0.1-0.5,0.1c-0.2,0-0.4,0-0.6,0.1c-0.3-0.1-0.5-0.1-0.6,0l-0.1-0.1
		c-0.1,0-0.2,0-0.2,0c-0.1,0-0.2,0-0.2,0c-0.1,0-0.1,0-0.1,0.1c-0.1,0.1-0.2,0.1-0.5,0.1c-0.2,0-0.4,0-0.5-0.1c0.1,0,0.2,0,0.2,0
		c0.1,0,0.1-0.1,0-0.2c-0.1,0-0.2,0.1-0.3,0c-0.1,0-0.2,0-0.3,0c-0.1,0-0.1,0,0,0.1c0,0,0,0.1-0.1,0.1c-0.1,0-0.1,0-0.2,0
		c0,0-0.1,0-0.2,0c-0.1,0-0.2-0.1-0.2-0.1h-0.2c-0.3,0-0.5,0-0.7-0.1c-0.1,0-0.1,0-0.1,0.1c-0.1,0-0.2,0.1-0.2,0c-0.1,0-0.2,0-0.2,0
		c0.1,0,0.1,0.1,0.2,0c0,0,0.1,0,0.2,0l-0.7,0.1v-0.1h0.2c0,0,0-0.1-0.1-0.1c-0.1-0.1-0.1-0.1,0-0.1l-0.1,0.3
		c-0.2,0.1-0.4,0.2-0.6,0.1c-0.2-0.1-0.2-0.1-0.3-0.2c0-0.1-0.1-0.1-0.2-0.1l-0.2,0.1l-0.2,0.1c-0.2,0-0.3,0.1-0.4,0
		c-0.1,0-0.2,0-0.3,0c-0.1,0-0.1,0-0.1-0.1c-0.2,0.1-0.4,0.1-0.6,0.1c-0.2-0.1-0.3-0.1-0.3,0c-0.1,0-0.2,0-0.2,0
		c-0.2,0-0.3,0-0.3-0.1c0,0-0.1-0.1-0.3-0.1h-1.7l-1.6,0.1c-0.2,0-0.4,0-0.7,0c-0.3,0-0.5,0-0.6,0h-0.3c-0.2,0.1-0.5,0.1-0.9,0.1
		c-0.3,0-0.5,0-0.6,0c-0.2-0.1-0.3-0.1-0.4,0c-0.1,0-0.2,0-0.4,0c-0.1,0-0.2,0.1-0.3,0c-0.2,0-0.3,0-0.5,0c-0.2,0-0.3,0.1-0.5,0
		c-0.2,0-0.3,0-0.5,0c-0.2,0.1-0.5,0.1-0.9,0.1c-0.2,0-0.3,0-0.6,0c-0.2,0-0.5,0-0.7,0c-0.5,0.1-0.9,0.1-1.4,0c-0.1,0-0.2,0-0.3,0.1
		c-0.1,0-0.2,0-0.3,0c-0.1,0-0.1,0-0.1,0.1c-0.2,0.1-0.3,0.1-0.5,0c-0.1,0-0.1,0-0.1,0c0,0,0,0-0.1,0h-0.3c-0.3,0.1-0.5,0.1-0.7,0.1
		c-0.1,0-0.2,0-0.2,0c-0.2,0.1-0.5,0.1-0.9,0c-0.1,0-0.1-0.1-0.2,0c0,0-0.1,0-0.2,0c-0.1,0-0.2,0-0.2,0c-0.1,0-0.2,0-0.3,0l-0.7-0.1
		h-0.1c-0.2,0-0.6,0-1-0.1c-0.4-0.1-0.7-0.1-1,0.1c-0.1,0-0.2,0-0.2,0.1c-0.1,0-0.2,0-0.2,0c-0.2,0.1-0.5,0.1-0.7,0
		c-0.1,0-0.2,0-0.3,0c-0.1,0-0.2,0-0.4,0c-0.6-0.1-1.1-0.1-1.4,0c0,0,0,0.1-0.1,0c0,0-0.1,0-0.1,0c-0.2,0-0.3,0.1-0.5,0
		c-0.2,0-0.3,0-0.5,0c-0.2,0-0.5,0.1-0.7,0.1c-0.2,0-0.5,0.1-0.7,0.1c-0.2,0-0.3,0-0.3-0.1c-0.5,0-1.1,0-1.6,0c-0.6,0.1-1,0.1-1.3,0
		h-0.5c-0.2,0.1-0.5,0.1-0.7,0c-0.1,0-0.2,0-0.3,0c-0.1,0-0.2,0-0.3,0c-0.2,0-0.3,0-0.3,0c-0.1,0-0.2,0-0.2,0
		c-0.3,0.2-0.6,0.2-0.9,0c-0.1-0.1-0.2-0.1-0.3-0.1c-0.2,0-0.3,0-0.3,0l-0.2,0.1c-0.1,0-0.2,0.1-0.2,0c-0.1,0-0.2,0-0.2,0
		c-0.1,0-0.1,0,0-0.1c0.1,0,0-0.1-0.3-0.1h-0.1c-0.2,0-0.6,0.1-1,0.1c-0.5,0-1.1-0.1-1.7-0.2c-0.1,0-0.2,0-0.4,0c-0.2,0-0.3,0-0.4,0
		c-0.3,0-0.7,0.1-1.1,0c-0.4,0-0.7,0-1,0c-0.2,0-0.3,0-0.5,0c-0.2,0-0.3,0-0.6,0c-0.2,0-0.4,0-0.6-0.1c-0.2,0-0.3,0-0.6,0
		c-0.2,0.1-0.3,0.1-0.3,0.1c-0.2,0-0.5-0.1-0.9-0.1c-0.1,0-0.1,0.1-0.2,0c0,0-0.1,0-0.2,0c-0.1-0.1-0.3-0.2-0.8-0.2h-1
		c-0.2,0-0.4,0-0.6,0c-0.3,0-0.5,0-0.7,0.2c-0.2,0-0.3,0-0.5-0.1c-0.2,0-0.3-0.1-0.3-0.1c-0.1,0-0.2,0-0.3,0.1c-0.2,0-0.3,0-0.5,0
		h-0.1c-0.1,0-0.2,0-0.3,0c-0.1,0-0.2,0-0.3,0c-0.2,0-0.5,0.1-0.7,0.1h-0.6c-0.1,0-0.2,0-0.2-0.1c-0.1-0.1-0.1,0-0.1,0.1
		c-0.1,0-0.2,0-0.4,0c-0.2,0-0.4,0-0.7,0l-0.5,0.1c-0.2,0-0.4,0-0.5,0.1c-0.2,0-0.3-0.1-0.5-0.1c-0.2,0-0.3-0.1-0.5-0.1
		c-0.2,0-0.4,0-0.5-0.1c-0.1-0.1-0.2-0.1-0.3,0c-0.1,0-0.1,0-0.2-0.1c0,0-0.1,0-0.2,0c-0.2,0-0.5,0.1-0.9,0.1
		c-0.3-0.1-0.5-0.1-0.6,0c0.1,0,0.1,0.1,0.1,0.2h-0.6v0.1c0,0,0,0-0.1,0l-0.1-0.1c0,0,0-0.1,0.1-0.1c0-0.1-0.1-0.2-0.2-0.1h-0.3
		c-0.2-0.1-0.5-0.1-0.7,0c-0.2,0-0.4,0-0.6,0l-0.8-0.1c-0.3-0.1-0.6,0-0.8,0.1h-0.1c-0.3-0.1-0.5-0.1-0.7-0.1
		c-0.2-0.1-0.3-0.1-0.3,0c-0.1,0-0.2,0-0.2,0H52c-0.1-0.1-0.2-0.1-0.2,0c-0.1,0-0.2,0-0.2,0c-0.1,0-0.1,0-0.2,0.1
		c0,0-0.1,0.1-0.2,0.1c-0.2-0.1-0.3-0.1-0.3-0.1h-0.1c-0.2,0.1-0.5,0.1-0.7,0h-1.8c-0.5,0-0.8,0-1-0.1c-0.4,0-0.8-0.1-1.2,0
		c-0.4,0-0.8,0-1.2,0c-0.5,0-1.3-0.1-2.2-0.1h-0.1c-0.1-0.1-0.3-0.1-0.6,0h-0.6c-0.2,0-0.5-0.1-0.9-0.1H40l-0.2-0.1
		c-0.2-0.1-0.6-0.1-1.3-0.1c-1,0-1.7,0-2.2-0.1c-0.2,0-0.6-0.1-1-0.1l-2.7-0.1l-1.4-0.1c-0.3,0-0.7-0.1-1.3-0.1
		c-0.3,0-0.6-0.1-0.8,0c-0.2,0-0.5,0-0.7,0c-0.9-0.1-1.6-0.1-2.2-0.1l-1-0.1c-0.2,0-0.3,0-0.5,0c-0.2,0-0.3,0-0.3,0h-0.2
		c-0.2,0-0.3,0-0.6,0c-0.2,0-0.4,0-0.6-0.1c-0.2,0-0.4-0.1-0.6-0.1c0,0,0,0-0.1,0c-0.3-0.1-0.6-0.1-0.9,0H21
		c-0.8-0.1-1.3-0.1-1.6-0.1h-0.3c-0.2,0-0.4,0-0.6,0.1l0.5,0.3c0.2,0,0.2,0,0.2,0.1c0,0,0,0.1,0.1,0.1c0.1,0,0.2,0,0.2,0.1
		c0.1,0.1,0.2,0.1,0.5,0.1c0.1,0,0.2,0,0.2,0.1c0.1,0,0.1,0.1,0,0.1c-0.2,0.1-0.4,0.2-0.7,0.3l-0.2-0.1c-0.1-0.1-0.2-0.1-0.3-0.1
		h-0.3c-0.2,0-0.6,0-1-0.1h-0.7c-0.2,0-0.3,0-0.5-0.1c-0.2,0-0.3-0.1-0.5-0.1h-0.2c-0.1,0-0.2-0.1-0.3-0.1c-0.2,0-0.4,0-0.6-0.2
		c-0.2-0.1-0.2-0.2,0-0.3c0.2-0.1,0.2-0.2,0.2-0.2c0-0.1,0.1-0.3,0.3-0.4c-0.2,0-0.4-0.1-0.6-0.2c-0.2-0.1-0.3-0.1-0.3-0.2
		c-0.2,0-0.2-0.1-0.1-0.3c0.2-0.1,0.2-0.2,0-0.4l-0.3-0.4c-0.2-0.1-0.2-0.3-0.2-0.5c0,0,0-0.1,0.1-0.1c0.1-0.1,0.2-0.2,0.2-0.4
		c-0.2-0.1-0.1-0.3,0.1-0.4c0.2,0,0.3-0.1,0.5-0.3c0.2-0.1,0.3-0.2,0.5-0.3l0.1-0.2c0.2-0.1,0.2-0.4,0.2-0.7V109l-0.1-0.1
		c-0.1,0-0.1-0.1,0-0.2c0.2-0.2,0.3-0.4,0.3-0.6c0-0.1,0.1-0.3,0.2-0.4c0.4-0.2,0.6-0.6,0.8-1c0-0.1,0.1-0.2,0.2-0.2
		c0.3-0.1,0.5-0.3,0.5-0.5c0-0.1,0.1-0.1,0.2-0.1l0.5-0.1c0.1,0,0.2-0.1,0.3,0c0.1,0,0.2,0,0.3,0h0.1c0.1,0.1,0.2,0.1,0.5,0
		c0.2-0.1,0.3-0.1,0.6,0l0.2,0.1c0.4,0,0.7,0.1,0.9,0.2l0.3,0.1c0.2,0,0.4,0,0.7,0.1l0.5,0.1c0.2,0,0.4,0,0.6,0
		c0.2,0.1,0.3,0.1,0.4,0.1c0.4,0.2,0.9,0.3,1.6,0.3c0.6-0.1,1.1,0,1.6,0.3l0.6,0.2l0.5,0.1l1.1-0.1h0.3c0.2,0,0.5-0.1,1,0
		c0.4,0,0.8,0,1.2,0c0.2,0,0.3,0,0.3-0.1c0.2-0.1,0.3-0.1,0.6,0l1.1,0.2h0.2c0.2,0,0.5-0.1,0.7-0.1h0.6c0.6,0,1,0.1,1.3,0.3
		c0.2,0.1,0.3,0.1,0.3,0.1c0.2-0.1,0.6-0.1,1-0.1c0,0,0,0,0.1,0l0.8-0.1c0.1,0,0.2,0,0.3,0c0.1,0,0.2,0,0.4,0
		c0.3,0.1,0.5,0.2,0.7,0.3c0.2,0.1,0.5,0.1,0.7-0.1l0.1-0.1l0.3,0.2c0.2-0.2,0.5-0.2,0.8,0l0.5,0.2c0.1-0.1,0.3-0.2,0.7-0.3
		c0.3-0.1,0.5-0.1,0.7,0h0.2c0.2,0,0.3-0.1,0.5,0c0.2,0,0.3,0,0.5,0c0.1,0,0.2,0,0.3,0.1c0.1,0.1,0.2,0.1,0.4,0.1
		c0.1,0,0.1,0,0.1,0.1c0,0,0,0.1,0.1,0.1c0.2-0.1,0.3-0.1,0.5-0.1v0.1c-0.2,0.1-0.1,0.1,0.1,0.1c0.4,0,0.7,0,1-0.1
		c0.3,0,0.6-0.1,1-0.1l0.2-0.1c0.2-0.2,0.5-0.3,0.8-0.1c0,0,0,0.1,0.1,0.1c0.2-0.1,0.3-0.1,0.5,0c0.1,0,0.2,0.1,0.2,0
		c0.1,0,0.2,0,0.2,0c0,0.1,0.1,0.1,0.2,0.1l0.2-0.1c0.1-0.1,0.3-0.2,0.6-0.1c0.2,0,0.4,0,0.5-0.1c0.2,0,0.2,0,0.2,0.1
		c0.1,0.1,0.2,0.2,0.3,0.2c0.2,0,0.3,0.1,0.3,0.1h0.2c0.3-0.1,0.6-0.1,0.8-0.1l0.9-0.1c0.1,0,0.1,0,0.1,0c0.1,0,0.2,0.1,0.3,0
		c0.2,0,0.2,0,0.2,0h0.1c0.2,0,0.3,0,0.5,0.1l0.2,0.1c0.1,0,0.2,0.1,0.3,0.2c0.2,0.1,0.3,0.1,0.6,0.1c0.2,0,0.3,0,0.3-0.1
		c0,0,0,0.1,0.1,0.1c0.2,0,0.3,0,0.3-0.1c0.1,0,0.2,0,0.2,0l0.5,0.2c0.1-0.3,0.3-0.4,0.7-0.2c0.2,0,0.2,0,0.2-0.1h0.6
		c0,0.1,0.1,0.1,0.2,0c0.4-0.1,0.6-0.2,0.8-0.1c0.1,0,0.2,0,0.2-0.1c0.1,0,0.2,0,0.3-0.1c0.1-0.1,0.2-0.1,0.3,0c0.1,0,0.2,0,0.3,0.1
		c0.2,0,0.3,0.1,0.3,0.1c0.5-0.1,0.8-0.1,0.9-0.1h0.6c0.2,0,0.5,0,0.7-0.1c0.2-0.1,0.2-0.1,0.2,0.1l0.1,0.1c-0.1,0-0.1,0.1-0.1,0.1
		c0,0,0.1,0,0.2,0l0.2-0.1c0.3-0.1,0.5-0.1,0.5,0.1c0,0.1,0,0.1,0.1,0.1c0.2-0.1,0.4-0.2,0.6-0.3c0.2,0,0.4,0,0.7,0
		c0.2,0,0.4,0.1,0.6,0.2c0.1,0,0.1,0,0.2-0.1c0,0,0.1-0.1,0.2-0.1V108c0,0,0.1-0.1,0.2-0.2c0.1,0,0.2-0.1,0.3,0c0.1,0,0.2,0,0.3,0
		l0.1,0.1c0.1,0.1,0.1,0.3,0.1,0.5c0.2,0,0.4,0,0.6,0c-0.1-0.1,0-0.1,0.1-0.1c0.1,0,0.2,0.1,0.3,0c0.2,0,0.3,0,0.3,0
		c0.2,0.1,0.3,0.1,0.3,0c0.1,0,0.2-0.1,0.3-0.1h0.3h0.8c0,0,0.1-0.1,0.2-0.1c0.2,0.1,0.3,0.1,0.5-0.1c0.2,0,0.3,0,0.5,0.1
		c0,0.1,0.1,0.1,0.2,0.1c0.1,0,0.1,0,0.2-0.1c0,0,0.1,0,0.2,0c0.3,0.2,0.6,0.2,1,0.1c0.3-0.1,0.7-0.1,1.1,0c0.2,0,0.3,0,0.5,0
		c0.2,0,0.3,0,0.5,0c0.2,0,0.3-0.1,0.3,0c0.1,0,0.2,0,0.2,0c0.3,0,0.6-0.1,0.9-0.2c0.2,0,0.2,0,0.2-0.1c0.2,0,0.3,0,0.3,0.1
		c-0.2,0.1-0.2,0.1,0,0.1c0.2,0.1,0.2,0.1,0.2,0c0.2,0,0.3,0,0.3,0c0.2,0,0.4,0,0.6,0h0.2c0.5,0.1,0.8,0.1,1,0.1h0.2
		c0.4,0,0.6,0.1,0.7,0.2c0.2,0.1,0.3,0.1,0.3,0c0.2,0,0.6-0.1,1-0.1h0.5c0.4,0.1,0.6,0.1,0.8,0h0.1c0.2,0,0.3,0,0.4,0
		c0.1-0.1,0.2-0.1,0.3-0.1c0.1,0,0.1-0.1,0.2,0c0,0,0.1,0,0.2,0c0.1,0,0.2,0.1,0.4,0.1c0.2,0,0.3,0.1,0.4,0.1
		c0.2,0.1,0.3,0.1,0.3,0.1c0.2,0,0.4,0,0.5,0c0.2-0.1,0.5-0.2,0.7-0.2c0.2,0,0.4-0.1,0.6-0.1c0.2,0,0.4-0.1,0.5-0.1
		c0.1,0,0.1,0,0.2-0.1c0,0,0.1-0.1,0.2-0.1c0.2,0,0.2,0.1,0.2,0.2l0.3,0.1l0.1,0.1c-0.1,0-0.1,0.1-0.1,0.2c0,0.1,0,0.2-0.1,0.2
		c0,0,0,0.1-0.1,0.1c-0.1-0.1-0.1-0.1-0.2,0c0,0-0.1,0-0.2,0c-0.2-0.1-0.6-0.1-1.3,0h-0.1c-0.4,0-0.8,0-1.3,0.1l-0.1,0.1
		c0,0.1,0.1,0.1,0.2,0.1c0.5,0,0.8,0,0.9,0.1c0.1,0,0.2,0,0.3,0.1c0.1,0,0.2,0,0.3,0l0.2,0.1l0.1,0.1c0.1,0,0.2,0,0.2,0
		c0.1,0,0.1,0,0.1-0.1c0-0.2,0.1-0.3,0.3-0.3c0.2-0.1,0.3-0.1,0.5-0.1l0.1,0.2c0.1,0.1,0.3,0.1,0.6,0.1h0.1c0.2,0,0.3,0.1,0.5,0
		c0.2,0,0.3,0,0.3,0c0,0,0-0.1-0.1-0.1c-0.1,0-0.2,0-0.2-0.1c0.3-0.2,0.4-0.4,0.2-0.5V109c0.2-0.1,0.4-0.1,0.5-0.1
		c0.1,0,0.2,0.1,0.3,0.1c0.2,0,0.3,0.1,0.3,0.3c0,0.1,0.1,0.1,0.2,0c0.1,0,0.1,0,0.1-0.1c-0.1-0.1,0-0.2,0.1-0.3l0.6-0.2l0.1-0.1
		c0-0.1,0.1-0.2,0.2-0.2c0.1,0,0.2,0,0.4,0c0.2,0.1,0.2,0.1,0.2,0c0.1-0.1,0.2-0.1,0.3-0.1h0.3c0.1,0,0.2,0,0.3,0
		c0.2,0,0.3,0,0.5,0.1c-0.1,0-0.1,0.1-0.1,0.1c0,0,0.1,0,0.2,0c0.4-0.1,0.7-0.1,0.9-0.1l1.1-0.1l0.8,0.1h0.1h0.2l0.1,0.1h0.2
		l0.5-0.1c0.4-0.2,0.9-0.3,1.6-0.3c0.2,0,0.6,0,1,0.1c0.1,0,0.2,0,0.3,0.1c0.1,0.1,0.2,0.1,0.4,0c0.2,0,0.5,0,0.8,0.1
		c0.1,0,0.1,0,0.2,0c0,0,0.1,0,0.2,0c0.3,0,0.4,0.1,0.2,0.2l0.2,0.1c0.1,0,0.1,0,0.1,0.1c0,0,0.1,0,0.2,0c0.1,0.1,0.2,0.2,0.3,0.1
		c0.2,0,0.2,0,0.2-0.1c0.2,0,0.3,0,0.3,0c0.2,0.1,0.3,0.2,0.2,0.3c-0.1,0-0.1,0-0.1,0c0,0,0,0,0.1,0c0.1,0.1,0.3,0.1,0.5,0.1
		c0.2,0,0.3-0.1,0.4-0.1c0.2-0.1,0.2-0.2,0.2-0.3c0.2-0.1,0.3-0.2,0.5-0.2c0.1,0,0.1,0.1,0.2,0c0,0,0.1,0,0.2,0l0.1-0.2
		c0.2-0.1,0.3-0.2,0.5-0.1c0.1,0,0.3,0.1,0.6,0.1c0.1,0,0.2,0,0.5,0.1c0,0.1,0,0.2-0.1,0.2c-0.2,0-0.2,0-0.2,0.1
		c0.1,0,0.1,0.1,0.1,0.1c0,0,0,0.1,0.1,0.1c0.1,0,0.2,0,0.3,0.1c0.2,0.1,0.3,0.1,0.5,0h0.3c0.1,0,0.2,0.1,0.3,0.1
		c0.2-0.1,0.5-0.2,0.9-0.2h0.3c0.2,0.1,0.3,0.1,0.5,0c0.3-0.2,0.5-0.3,0.5-0.4c0.1-0.2,0.3-0.2,0.6-0.1c0.1,0,0.2,0,0.2,0
		c0-0.1,0.1-0.1,0.2,0l0.1,0.2c0.1,0,0.1,0,0.1,0c0,0,0-0.1,0.1-0.1c0,0,0.1,0.1,0.2,0.3c0.2,0.1,0.2,0.3,0.2,0.4c0,0,0,0.1-0.1,0.1
		h-0.2h-0.3c-0.5,0.1-0.8,0.1-1,0.1c-0.1,0-0.2,0-0.3,0.1c0-0.1,0-0.1-0.1-0.1c-0.1,0.1-0.2,0.1-0.3,0c0,0,0-0.1-0.1-0.1v0.1
		c0,0,0.1,0.1,0.2,0.1c0.1,0,0.1-0.1,0.2,0c0,0,0.1,0,0.2,0l0.5,0.4c0,0,0.1,0.1,0.2,0.1c0.1,0,0.2,0,0.3,0l0.2,0.1
		c0.2,0.1,0.3,0.1,0.3,0c0.2,0,0.3,0,0.4,0c0.1,0,0.2,0,0.3,0c0.1,0,0.2,0,0.2,0l0.5-0.1c0.3-0.1,0.5-0.1,0.7-0.1
		c0.2,0.1,0.3,0.1,0.4,0.1c0.1,0,0.2-0.1,0.3-0.1c0.1,0,0.1,0,0.2-0.1c0,0,0.1,0,0.2,0c0.2,0,0.3,0,0.4,0c0.1,0,0.2-0.1,0.3-0.1
		c0,0-0.1-0.1-0.3-0.1c-0.4,0-0.7-0.1-0.9-0.3h-0.2c-0.2,0-0.3-0.1-0.6-0.1c-0.2,0-0.3,0-0.4-0.1c-0.1-0.1-0.2-0.2-0.3-0.3h0.1
		c0.1-0.1,0.2-0.2,0.3-0.2c0.2,0,0.3,0,0.3,0c0.2,0,0.4,0,0.6-0.1c0.1,0,0.2-0.1,0.2,0c0.1,0,0.1,0.1,0.1,0.1c0,0.1,0.1,0.2,0.2,0.2
		c0.1,0,0.2,0,0.3,0.1c0.2,0,0.3,0.1,0.5,0.1c0.2,0,0.4,0,0.5-0.1c0.2-0.1,0.5-0.1,0.8-0.1c0.3,0.1,0.6,0,0.8-0.1
		c0,0,0.1-0.1,0.2-0.2c0.5,0,0.7,0,0.8,0.3l0.1,0.1c-0.1,0-0.1,0.1-0.1,0.1c0,0,0.1,0,0.2,0c0.1,0,0.2,0,0.2,0l0.2-0.1
		c0.2,0,0.4,0,0.5-0.1c0,0,0-0.1,0.1-0.1c0.1,0,0.2,0,0.2,0c0.1,0,0.2,0,0.3,0c0.2,0,0.3,0.1,0.3,0.2h0.2c0.4-0.1,0.6,0,0.7,0.1
		c0.2,0,0.3-0.1,0.5,0c0.2,0,0.4,0,0.5,0c0.1,0,0.2,0,0.4,0c0.2-0.1,0.4-0.1,0.5-0.1v0.3v0.1c0,0.1-0.1,0.2-0.3,0.2
		c-0.1,0-0.1,0-0.1,0.1c-0.2,0.1-0.2,0.1-0.2,0c-0.1,0-0.2-0.1-0.5-0.1c-0.1,0-0.2-0.1-0.3-0.1c-0.1,0-0.2,0-0.3-0.1
		c-0.2,0-0.3-0.1-0.3-0.3c-0.1,0-0.1,0-0.2,0.1c0,0-0.1,0.1-0.2,0.1c-0.2,0-0.4,0.1-0.6,0.2c0,0.1-0.1,0.1-0.3,0.1
		c-0.1,0-0.2,0-0.3,0c-0.1,0-0.2,0.1-0.2,0c-0.1,0-0.2,0-0.2,0c-0.1,0-0.2-0.1-0.4-0.1c-0.2,0-0.3,0-0.4,0c-0.2,0-0.4,0-0.7-0.1H121
		c-0.1,0.1-0.1,0.2,0,0.2v0.1c0.1,0.1,0.2,0.3,0.4,0.4c0.2,0.1,0.4,0.1,0.6,0.1h0.2c0.3-0.1,0.6-0.1,0.8,0h0.3
		c0.5-0.1,0.8-0.2,0.9-0.2c0.2,0,0.3,0,0.3,0.1c0.2,0,0.3,0,0.3,0c0.1,0.1,0.2,0.1,0.2,0.1c0.1,0,0.1,0,0.1-0.1V110l-0.1-0.1
		c0-0.1,0.1-0.2,0.3-0.1l0.2,0.1c0.2,0.1,0.5,0.1,0.8,0.1h0.2c0.2,0,0.4,0,0.5,0.1c0.2,0.1,0.3,0.1,0.3,0c0.1,0,0.2-0.1,0.3-0.1
		c0.1,0,0.3-0.1,0.3-0.2l0.2,0.1c0.1,0,0.1,0,0.1-0.1c0,0,0-0.1,0.1-0.1c0,0.1,0.1,0.1,0.3,0.1c0.4,0,0.7,0,0.9,0.1l0.6,0.1
		c0.2,0,0.3,0,0.5,0c0.2,0.1,0.3,0.1,0.4,0.1c0.1,0.1,0.3,0.1,0.3,0l0.8-0.3c0.1,0,0.2,0,0.2,0c0.1,0,0.1,0,0.1,0
		c0.2,0.1,0.5,0.2,0.8,0.2c0.2,0,0.3,0,0.5,0c0.2,0,0.3-0.1,0.4-0.1c0.1,0,0.1,0,0.2,0c0,0,0.1,0,0.2,0c0,0,0,0.1,0.1,0.1
		c0.1,0,0.1,0,0.1-0.1c0.2-0.1,0.3-0.1,0.6,0h0.2c0.1,0,0.2,0,0.4-0.1c0.2,0,0.4,0,0.5,0c0.1,0,0.2,0.1,0.3,0c0.2,0,0.3,0,0.3,0
		l0.1-0.1c-0.1,0-0.1,0-0.1,0c0,0,0,0,0.1,0h0.1c0.4,0.2,0.6,0.3,0.8,0.4c-0.3,0.2-0.7,0.3-1.1,0.2c-0.2,0-0.4,0-0.5,0l-0.6,0.4
		c-0.2,0-0.3,0-0.3-0.1c-0.2-0.1-0.5-0.2-0.7-0.1c-0.1,0-0.2,0-0.3-0.1c-0.1,0-0.2,0-0.3,0c-0.1,0-0.2-0.1-0.4,0c-0.2,0-0.4,0-0.5,0
		c-0.1,0-0.2,0-0.3,0c-0.2,0-0.3-0.1-0.3-0.1c-0.5-0.1-0.8-0.1-1-0.1c-0.2,0-0.4,0.1-0.7,0.1c-0.2,0-0.4,0-0.6,0.1
		c-0.2,0.1-0.4,0.1-0.5,0.2c0.1,0,0.2,0.1,0.2,0.1c0.1,0,0.1,0,0,0.1c-0.2,0.1-0.5,0.2-0.7,0.1c-0.2-0.1-0.3-0.1-0.5-0.1
		c-0.1,0-0.1,0-0.1-0.1c0,0,0-0.1-0.1-0.1l-0.2,0.1l-0.2-0.1c-0.2-0.1-0.3-0.1-0.6-0.1c-0.2,0-0.4,0-0.5,0l-0.2,0.1
		c-0.1,0.1-0.1,0.3-0.1,0.5c0.5-0.1,1.2-0.1,2,0.1c0.2,0,0.5,0.1,0.9,0.1h0.5c0.4,0,0.7,0,1,0c0.4,0.1,0.6,0.1,0.7-0.1
		c0.1,0,0.2-0.1,0.3-0.1c0.2,0.1,0.3,0.1,0.3,0c0.1,0,0.2,0,0.4,0c0.2,0,0.3,0,0.4,0c0.1,0,0.2,0,0.2-0.1c0.2-0.2,0.4-0.3,0.8-0.3
		c0.6,0,1.1,0,1.4-0.1c0.1,0,0.2,0.1,0.2,0.1c0.1,0,0.2,0,0.2,0.1h0.1c0.1-0.1,0.2-0.1,0.2-0.1c0.1,0,0.2,0.1,0.2,0.1
		c0.1,0,0.1,0,0.1,0c0,0,0,0,0.1,0c0.1-0.1,0.2-0.1,0.5-0.1c0.2,0.1,0.4,0.2,0.5,0.2c0.2,0.1,0.5,0.2,0.7,0.1c0.1,0,0.1-0.1,0.2,0
		c0,0,0.1,0,0.2,0c0.4,0.1,0.7,0.1,1,0l0.6,0.1c0.2,0,0.3,0.1,0.5,0.3c0.1,0,0.2,0,0.3,0c0.1,0,0.2-0.1,0.3-0.2c0,0,0-0.1,0.1-0.1
		c0.1,0,0.2-0.1,0.2-0.1l0.3,0.1l0.3,0.1c-0.2,0.1-0.2,0.2,0,0.2l0.2,0.1c0.1,0,0.1,0.1,0,0.1c0,0,0,0.1-0.1,0.1c-0.1,0-0.2,0-0.2,0
		c-0.1,0-0.2,0-0.3,0c-0.1,0-0.2,0-0.3,0c-0.2,0-0.4,0-0.6-0.1l-0.3-0.1c-0.2,0-0.2,0-0.2,0.1c0,0.1-0.1,0.1-0.2,0.1
		c-0.2,0-0.2-0.1-0.2-0.1c0,0,0-0.1-0.1-0.1c0,0-0.1,0-0.2,0c-0.6,0.1-1,0.2-1.1,0.3c-0.2,0.1-0.1,0.2,0.1,0.3h0.2
		c0.7,0,1.2,0,1.5,0.1c0.5,0,0.8,0,1.1-0.1c0.1,0,0.2,0,0.2,0c0.1,0,0.1,0,0.2,0c0.2-0.1,0.3-0.2,0.5-0.1c0.5,0,1.1,0.1,1.7,0.4
		c-0.1,0.1-0.3,0.2-0.6,0.2c-0.2,0-0.3,0.1-0.4,0c-0.1,0-0.2,0-0.3,0l-0.6,0.1c-0.4,0-0.9,0-1.4,0c-0.6-0.1-1-0.1-1.3-0.2
		c-0.5-0.1-0.8-0.1-1,0.1c-0.1,0-0.1,0-0.1,0c-0.2,0-0.3,0-0.3,0.1c-0.1,0-0.2,0-0.5,0c-0.2,0-0.3,0.1-0.5,0c-0.2,0-0.4,0-0.5,0
		l-0.2,0.1c-0.2,0-0.2,0-0.2,0c-0.2,0-0.3-0.1-0.6-0.1h-0.5h-0.3c-0.9,0-1.6,0-2.2-0.1c-0.3,0-0.5,0-0.7,0.1
		c-0.3,0.1-0.5,0.1-0.7,0.1c-0.2,0-0.4,0-0.6,0c-0.3,0-0.6,0-1,0h-0.2l-0.5-0.1c-0.2,0-0.5,0-0.8,0c-0.3,0-0.6,0.1-0.8,0.1h-0.2
		c-0.5,0.1-1,0.1-1.6,0h-0.2c-0.2,0-0.5,0-0.9-0.1h-0.2c-0.1,0-0.2,0-0.2,0.1h-0.1c0,0-0.1,0.1-0.3,0c-0.2,0-0.3,0-0.4,0
		c-0.1,0-0.2,0-0.3,0c-0.2,0-0.3,0-0.5,0.1L123,113c-0.4,0-0.8,0.1-1.1,0.2c-0.2,0-0.3,0-0.3-0.1c-0.1,0-0.2-0.1-0.3,0
		c-0.1,0-0.2,0-0.3,0c-0.1,0-0.1,0-0.1,0.1c0,0-0.1,0.1-0.2,0.1c-0.5-0.1-0.8-0.1-1-0.1c-0.3,0-0.5,0-0.6-0.1c-0.2,0-0.3,0-0.5,0.1
		c-0.3,0.1-0.5,0.1-0.7,0.1h-0.2c-0.2,0-0.4-0.1-0.6-0.1c-0.3,0-0.5-0.1-0.6-0.2h-0.2c-0.1,0-0.1,0-0.1,0.1c-0.1,0-0.2,0-0.2-0.1
		c-0.1,0-0.2,0-0.2,0c-0.1,0-0.1,0-0.2,0c0,0-0.1-0.1-0.2-0.1H115c-0.1,0.1-0.3,0.1-0.7,0.1h-0.2c-0.3,0.1-0.6,0.1-1-0.1
		c-0.2,0-0.3,0-0.5,0c-0.2,0-0.3,0-0.5,0c-0.1,0-0.2,0.1-0.3,0.1s-0.2,0-0.3,0.1c-0.1,0-0.2-0.1-0.4,0c-0.2,0-0.3,0-0.4,0l-0.2,0.1
		c-0.1,0-0.3,0.1-0.6,0.1c-0.3,0-0.5,0-0.6,0c-0.2,0-0.3,0.1-0.5,0c-0.2,0-0.3,0-0.5,0c-0.1,0-0.2,0-0.4,0c-0.2,0-0.4,0-0.7,0
		c-0.1,0-0.2,0-0.3,0c-0.1,0-0.2,0-0.4,0c-0.5,0-0.8,0-1,0.1c-0.2,0-0.2,0-0.2-0.1c-0.2,0-0.5,0-0.8,0.1c-0.3,0.1-0.5,0.1-0.7,0.1
		h-0.7l-0.2-0.1c-0.1,0-0.1,0-0.1,0c0,0,0,0-0.1,0c-0.2,0.1-0.3,0.1-0.5,0c-0.1,0-0.2-0.1-0.2-0.1c0,0-0.1,0.1-0.2,0.1
		c-0.2-0.1-0.5-0.2-0.7-0.1c-0.3,0-0.4,0.1-0.5,0.1c-0.2,0-0.3,0-0.5,0.1c-0.2,0-0.3,0-0.5,0c-0.2,0.1-0.5,0.2-0.9,0.1
		c-0.3,0-0.7,0-1.1,0.1h-0.1c-0.1,0-0.2,0.1-0.3,0c-0.1,0-0.2-0.1-0.3-0.2c-0.1-0.1-0.2-0.1-0.5-0.1h-0.1c-0.2,0-0.3,0-0.5,0
		c-0.2,0.1-0.4,0.1-0.5,0.1s-0.2,0-0.2,0.1c0.2,0.3,0.6,0.4,1.1,0.4h0.2c0.2,0,0.6-0.1,1-0.1c0.3,0.1,0.5,0.1,0.7,0h0.2
		c0.3,0.1,0.5,0.1,0.7,0c0.1,0,0.2-0.1,0.3,0c0.2,0,0.3,0,0.3,0c0.1,0,0.1,0,0.2,0.1c0,0,0.1,0,0.1,0c0.1,0,0.1-0.1,0.1,0
		c0,0,0,0,0.1,0c0.2,0.1,0.3,0.1,0.3,0c0.1,0,0.2-0.1,0.5-0.1c0.2,0.1,0.2,0.1,0.2,0.1c0.1,0,0.1,0,0.2,0c0,0,0.1,0,0.2,0l0.2-0.1
		c0.4,0,0.8,0,1.4-0.1h0.2c0.2,0,0.4,0,0.8-0.1c0.2,0,0.3,0,0.3,0.1c0,0,0.1,0.1,0.2,0.1c0.1,0,0.1,0.1,0.1,0.1c0,0,0,0.1,0.1,0.1
		h0.1c0.1,0,0.1,0,0.1-0.1s0-0.1,0.1,0c0.4,0,0.6,0,0.7,0.1c0,0.1,0.2,0.1,0.5,0.1c0.4,0,0.9,0,1.7-0.1c1,0,1.9-0.1,2.8-0.2
		c0.1,0,0.2,0,0.3,0c0.1,0,0.2,0,0.3,0c0.2,0,0.3,0.1,0.4,0c0.1,0,0.2,0,0.3,0c0.2-0.1,0.4-0.1,0.5-0.1c0.1,0,0.2,0.1,0.5,0.1
		c0.2,0,0.3,0,0.4,0c0.1,0,0.2,0,0.4,0c0.2,0.1,0.3,0.1,0.3,0c0.2-0.1,0.5-0.2,0.8-0.1c0.3,0,0.6,0.1,0.8,0c0.2,0,0.5,0,0.7,0
		c0.3,0,0.8-0.1,1.5-0.1c0.1,0,0.2,0,0.4,0c0.2,0,0.3,0,0.4,0c0.2,0,0.5,0,0.8,0.1l0.2-0.1c0.1,0,0.2-0.1,0.2,0c0.1,0,0.2,0,0.2,0
		h0.5c0.1,0,0.1,0,0.2-0.1c0,0,0.1,0,0.2,0c0.1,0,0.1,0,0.1-0.1c0,0,0-0.1,0.1-0.1c0.3-0.1,0.5-0.1,0.7,0c0.1,0,0.1,0.1,0.2,0
		c0,0,0.1,0,0.2,0l0.6-0.1c0.1,0,0.2-0.1,0.3-0.1c0.3,0.1,0.8,0.1,1.5,0.1c0.5,0,0.8,0,1-0.1c0.3,0,0.5,0,0.7,0.1
		c0.4,0.1,0.7,0.1,0.9-0.1c0.2-0.2,0.3-0.2,0.6-0.1c0.1,0,0.2,0.1,0.5,0.1c0.2,0,0.5,0,0.7,0c0.2,0,0.5,0,0.7,0c0.1,0,0.1-0.1,0.2,0
		c0,0,0.1,0,0.2,0c0.2,0.1,0.3,0.1,0.3,0c0.4,0,0.7-0.1,1,0c0.3,0,0.5,0,0.7,0c0.2,0,0.3,0,0.3-0.1c0.3,0,0.8-0.1,1.6-0.1h0.6
		c0.5,0,0.8,0,1-0.1c0.2,0,0.5-0.1,0.9,0c0.4,0,0.7,0,0.9,0h0.6c0.3,0.1,0.6,0.1,0.8,0.1c0.1,0,0.1,0,0.2,0c0.1,0,0.2,0,0.3,0l1-0.1
		c0.2,0,0.4,0,0.6,0.1c0.1,0,0.2-0.1,0.4,0c0.2,0,0.4,0,0.5,0l1.8-0.1h0.5l0.8-0.1c0.1-0.1,0.3-0.1,0.6,0c0.1,0,0.1,0,0.2,0
		c0,0,0.1,0,0.2,0c0.2,0,0.5-0.1,0.7,0c0.2,0,0.4,0,0.6,0l0.1,0.1l0.7,0.1c0.1,0,0.2,0,0.5,0.1v0.1c-0.1,0-0.2,0-0.3,0.1
		c-0.1,0.1-0.2,0.1-0.2,0.1H148z"/>
	<path class="st0" d="M156.4,141.7h2.6v-13h2.5v-2.3h-7.6v2.3h2.5V141.7z M147.3,141.7h2.6v-13h2.5v-2.3h-7.6v2.3h2.5V141.7z
		 M143.3,141.7v-2.3h-4.7V135h3.4v-2.3h-3.4v-3.9h4.4v-2.3h-7v15.3H143.3z M128.5,141.7v-5.4l0.9-1.7h0l2.1,7.1h2.6l-3.2-9.6
		l2.8-5.7h-2.6l-2.7,5.7h0v-5.7h-2.6v15.3H128.5z M117.9,135.5c0.5,0,1,0,1.3-0.1l1.8,6.3h2.6l-2.2-6.9c0.9-0.4,1.8-1.4,1.8-3.9
		c0-3.3-1.5-4.5-4.4-4.5h-3.7v15.3h2.6V135.5z M117.9,128.6h0.9c1.4,0,1.9,0.5,1.9,2.4c0,1.8-0.5,2.3-1.9,2.3h-0.9V128.6z
		 M107.5,138.3h2.9l0.5,3.4h2.5l-2.8-15.3h-3.2l-2.8,15.3h2.5L107.5,138.3z M108.9,129.5L108.9,129.5l1.1,6.6h-2.1L108.9,129.5z
		 M98.2,141.7v-6.3h1.1c3.2,0,4.7-1.2,4.7-4.5c0-3.3-1.5-4.5-4.7-4.5h-3.7v15.3H98.2z M98.2,128.6h1c1.7,0,2.2,0.5,2.2,2.4
		c0,1.8-0.5,2.3-2.2,2.3h-1V128.6z M85.2,126.5l-1.8,8.9h0l-1.8-8.9H78v15.3h2.3v-11.9h0l2.4,11.9h1.3l2.4-11.9h0v11.9h2.3v-15.3
		H85.2z M75.4,126.5h-2.6v15.3h2.6V126.5z M59.9,135.5c0.5,0,1,0,1.3-0.1l1.8,6.3h2.6l-2.2-6.9c0.9-0.4,1.8-1.4,1.8-3.9
		c0-3.3-1.5-4.5-4.4-4.5h-3.7v15.3h2.6V135.5z M59.9,128.6h0.9c1.4,0,1.9,0.5,1.9,2.4c0,1.8-0.5,2.3-1.9,2.3h-0.9V128.6z
		 M55.1,141.7v-2.3h-4.7V135h3.4v-2.3h-3.4v-3.9h4.4v-2.3h-7v15.3H55.1z M40.7,141.7h2.6v-13h2.5v-2.3h-7.6v2.3h2.5V141.7z
		 M32.1,138.3h2.9l0.5,3.4h2.5l-2.8-15.3h-3.2l-2.8,15.3h2.5L32.1,138.3z M33.5,129.5L33.5,129.5l1.1,6.6h-2.1L33.5,129.5z
		 M27.4,141.7v-2.3h-4.7V135h3.4v-2.3h-3.4v-3.9h4.4v-2.3h-7v15.3H27.4z M12.2,141.7V135H15v6.8h2.6v-15.3H15v6.2h-2.8v-6.2H9.6
		v15.3H12.2z M2.5,141.7h2.6v-13h2.5v-2.3H0v2.3h2.5V141.7z"/>
	<path class="st0" d="M105.7,57.3c-0.5-0.4-0.6-0.9-0.2-1.4c0.1-0.1,0-0.2,0-0.4c0.1-0.1,0.1-0.4,0.4-0.4c0.1,0,0.2,0,0.4-0.1
		c0,0-0.1-0.2,0.1-0.1c0.1,0,0,0.1-0.1,0.2c-0.4,0.7-0.4,0.8,0.4,1.3v0.1C105.8,57,105.8,57,105.7,57.3 M110.7,45.5
		c-0.1,0-0.1-0.1-0.1-0.1v-0.2c-0.5-0.1-0.2-0.5-0.4-0.7c-0.1-0.5-0.1-0.9-0.5-1.4c0-0.1,0-0.4,0.1-0.5c0.2-0.2,0.5-0.5,0.7-0.7
		l0.4-0.4c0.1-0.5,0.4-0.6,0.7-0.8c0.2-0.1,0.5-0.4,0.7-0.6c0.4-0.4,0.7-0.6,1.2-0.8c0.4-0.2,0.6-0.4,0.9-0.7
		c0.1-0.2,0.5-0.4,0.8-0.5c0.2,0,0.5-0.2,0.7-0.4c0.1-0.1,0.4-0.5,0.6-0.4c0.5-0.2,0.8-0.2,1.1-0.7c0.1-0.1,0.1-0.2,0.2-0.2
		c0.4-0.1,0.6-0.2,0.9-0.2c0.4,0.1,0.7,0,0.9-0.2c0.2-0.1,0.5-0.2,0.8-0.1c0,0.1,0.1,0,0.2,0c0.7-0.2,1.4-0.6,2.2-0.8
		c0.1,0,0.1,0,0.2,0.1h-0.1c-0.4,0.4-0.7,0.9-0.9,1.4c-0.1,0.1-0.4,0.1-0.4,0.2c-0.1,0.1-0.2,0.2-0.2,0.5c-0.1,0.1-0.4,0.2-0.4,0.4
		c-0.1,0.1-0.2,0.4-0.2,0.5c-0.1,0.4-0.4,0.5-0.6,0.7c-0.6,0.5-0.9,1.1-1.4,1.5c0,0.1-0.1,0.2-0.1,0.5v0.1c-0.5,0.1-0.4,0.7-0.7,0.9
		c-0.2,0.1,0,0.2,0,0.4c-0.1,0.1,0.1,0.1,0.2,0.2c-0.1,0.2-0.4,0.1-0.5,0.2c-0.1,0-0.2-0.1-0.4,0c-0.1,0.4-0.5,0.4-0.6,0.6
		c-0.1,0.2-0.5,0.2-0.7,0.4c-0.2,0.2-0.4,0.4-0.6,0.5c-0.5,0.4-1.1,0.7-1.6,0.7c-0.1,0-0.2,0-0.2,0.1c-0.1,0.2-0.2,0.5-0.6,0.4
		c-0.8,0.1-1.4,0.1-1.9-0.1c-0.1-0.1-0.2,0-0.2,0c-0.1,0.1-0.1,0.2-0.2,0.2C111,45.5,110.8,45.5,110.7,45.5 M126.9,5.6
		c-0.4-0.1-0.2-0.5-0.2-0.7c0-0.1,0-0.1,0.1-0.2c0,0.1,0.1,0.1,0.2,0.1c0.2,0.2,0.2,0.5,0.1,0.7C127,5.4,126.9,5.6,126.9,5.6
		 M107.4,38.8c-0.1,0-0.2-0.1-0.2-0.1c0-0.4,0-0.6,0.2-0.8c0.1,0,0.1,0,0.2-0.1c0.1-0.1-0.2-0.4,0-0.5c0.2-0.1,0.2-0.2,0.4-0.4
		c0-0.1,0-0.2-0.1-0.4c-0.1-0.1,0-0.4-0.1-0.6c-0.1-0.5,0.1-0.7,0.2-0.9c0.1-0.1,0.2-0.2,0.1-0.4c0-0.5,0-0.5,0.5-0.7
		c0-0.5-0.6-0.4-0.7-0.7c0-0.1,0.1-0.1,0.1-0.1h0.4c0-0.1,0.1-0.4,0-0.5v-0.2c-0.2-0.4-0.1-0.6,0.1-0.8c0.1-0.1,0.1-0.2,0.1-0.5
		c-0.1,0-0.1-0.2-0.1-0.2c-0.2-0.2-0.1-0.5,0-0.6c0.5-0.1,0.4-0.6,0.4-0.8c-0.1-0.4,0.1-0.7,0-1.1c0,0,0.1,0,0.1-0.1
		c0.2-0.4,0.2-0.4,0.2-0.8v-0.6c0-0.5,0.4-0.6,0.5-0.9c0,0.1,0.1,0.1,0.1-0.1c0.2-0.6,0.2-1.2,0.5-1.8c0-0.2,0.1-0.5-0.1-0.7
		c-0.1-0.1,0-0.1,0-0.2c0.1-0.1,0.2-0.2,0.4-0.2c0.4,0,0.5-0.2,0.5-0.5c0.1-0.2,0.2-0.5,0-0.7c-0.2-0.4-0.2-0.5,0.1-0.7
		c0.2-0.2,0.2-0.6,0.2-0.8s0-0.4,0.1-0.4c0.2-0.1,0.4-0.2,0.2-0.4c-0.2-0.4-0.1-0.6,0-0.9c0.4-0.5,0.6-0.9,0.8-1.4
		c0.2-0.4,0.4-0.7,0.5-1.1c0,0,0-0.1,0.1-0.2c0.4-0.4,0.5-0.8,0.8-1.3c0.2-0.4,0.4-0.8,0.6-1.1c0.1-0.2,0.1-0.4,0.4-0.5
		c0.2-0.1,0.1-0.4,0.2-0.5c0.1-0.4,0.2-0.7,0.2-1.2c0-0.2,0.4-0.5,0.6-0.6c0.1,0,0.2-0.1,0.2-0.2c0-0.2,0.2-0.5,0.4-0.6
		c0.4-0.4,0.6-0.7,0.6-1.2c0-0.1,0.1-0.1,0.2-0.2c0.2,0,0.2-0.2,0.4-0.5c0-0.2,0.1-0.6,0.5-0.7c0.1,0,0.1-0.4,0.4-0.4
		c0.1-0.4,0.5-0.5,0.7-0.7c0.2-0.1,0.4-0.2,0.6-0.4V5.7c0.5-0.2,0.9-0.7,1.5-0.9c0.1-0.1,0.4-0.2,0.4-0.4c0-0.2,0.1-0.2,0.2-0.4
		c0.5-0.1,0.8,0,1.3,0c0.2,0,0.3,0.2,0.5,0.4c0.1,0.1,0.2,0.4,0.4,0.2c0.2,0,0.2,0,0.2,0.1c0,0.5,0.5,0.6,0.7,0.8h0.1l0.4-0.2
		c0,0.1,0,0.2,0.2,0.4c0.1,0.1,0.2,0.2,0.4,0h0.1c0,0.1,0.1,0.2,0.1,0.2l-0.4,0.4c-0.4,0.4-0.4,0.4-0.1,0.7c0,0,0,0.1,0.1,0.1
		c0.5-0.1,0.5-0.8,0.9-0.9c0.2,0.1,0.1,0.4,0.1,0.6c-0.2,0.5-0.2,0.9,0,1.4c0.1,0,0.2,0,0.2-0.1c0-0.1,0-0.2,0.1-0.1
		c0.1,0,0.2,0.2,0.2,0.2c-0.4,0.1-0.1,0.4-0.1,0.6c0.1,0.2,0.1,0.5,0.2,0.6c0.1,0.1,0.1,0.1,0,0.1c-0.2,0.1-0.1,0.5-0.1,0.6
		c-0.1,0.2-0.1,0.4,0.1,0.5c0.2,0.1,0.2,0.2,0.1,0.5c0,0.2,0.1,0.5,0.2,0.7v0.2c-0.1,0.4-0.1,0.5,0,0.8V13c0,0.4,0,0.6,0.1,0.8
		c0.1,0.1,0.1,0.1,0.1,0.2c-0.1,0.2,0,0.4,0.1,0.4c0.1,0.2,0.2,0.6,0.2,0.8c0.1,0.2,0.2,0.4,0.1,0.6c-0.1,0.1,0,0.1,0,0.2
		c0.4,0.1,0.4,0.5,0.4,0.7c0,0.4,0.2,0.6,0,0.9c-0.1,0.2-0.1,0.5,0,0.8c0.1,0.2,0,0.5-0.1,0.7c0,0.1-0.1,0.2-0.1,0.5
		c0,0.2,0,0.5,0.1,0.6c0.1,0.1,0.1,0.2,0.1,0.4c0,0.1,0,0.2-0.1,0.1c-0.2,0-0.4-0.1-0.5-0.1c-0.1-0.1-0.4,0-0.4,0.2
		c0,0.1,0,0.4,0.1,0.6c-0.1,0.1-0.4,0-0.4,0.1c-0.2,0.1-0.2,0.4-0.2,0.6c0.1,0.4,0.5,0.6,0.5,0.9c-0.2,0.1-0.5,0-0.4,0.4
		c0,0.2-0.1,0.5-0.2,0.6c-0.2,0.4-0.5,0.6-0.5,1.1c0,0.4-0.1,0.7-0.1,1.1c0,0.2-0.4,0.5-0.5,0.8c0,0.2,0.1,0.5,0,0.8
		c-0.1,0.2-0.2,0.6-0.5,0.9c0,0.1-0.1,0.2,0,0.4c0,0.1,0,0.2-0.1,0.2l-2,0.7c-0.5,0-0.9,0.2-1.3,0.5c-0.1,0.1-0.2,0.1-0.2,0.1
		c-0.4,0-0.6,0.2-0.9,0.4c-0.5,0.4-1.1,0.6-1.6,0.7c-0.4,0-0.7,0.1-0.9,0.5c-0.1,0.1-0.1,0.1-0.4,0.1c-0.5,0.1-0.8,0.4-1.1,0.7
		c-0.1,0.2-0.5,0.4-0.5,0.7c-0.1,0.2-0.5,0.4-0.5,0.7l-0.1,0.1c-0.2,0-0.5,0.2-0.7,0.4c-0.1,0-0.1,0-0.1-0.1
		c-0.1-0.2-0.2-0.2-0.5-0.1c-0.2,0.2-0.6,0-0.8,0.2c-0.5,0.4-0.8,0.6-1.2,0.9c-0.2,0.2-0.5,0.4-0.7,0.2c-0.2,0-0.5,0.1-0.6,0.2
		c-0.1,0.1-0.2,0.4-0.5,0.5c-0.2,0.2-0.6,0.4-0.8,0.5c-0.5,0.1-0.9,0.4-1.3,0.6c-0.2,0.2-0.6,0.2-0.7,0.6c0,0.1-0.1,0.1-0.2,0.1
		C108,38.8,107.7,38.6,107.4,38.8 M97.9,93.8c0.2,0,0.5-0.1,0.7,0c0.1,0.2,0.2,0.1,0.2,0c0-0.4,0.1-0.5,0.4-0.6
		c0.1-0.1,0.2-0.2,0.2-0.5c0-0.1,0-0.2,0.1-0.4c0.5-0.1,0.5-0.1,0.7-0.6c0.1-0.1,0.4-0.4,0.4-0.5c0.1-0.1,0.4-0.1,0.4-0.2
		c-0.1-0.2,0-0.2,0-0.5v-0.2c0.1-0.4,0.1-0.6,0.1-0.8c0.4-0.4,0.9-0.6,1.1-1.3c0-0.1,0.1-0.1,0.1-0.2c0.4-0.1,0.4-0.1,0.1-0.5
		c0.1,0,0.2-0.1,0.4-0.1c0.2-0.1,0.2,0,0.4,0.1c0,0,0,0.1,0.1,0.1c0.1-0.2,0.4-0.5,0.7-0.7c0.1,0,0.4-0.2,0.2-0.5
		c0-0.1,0.1-0.1,0.1-0.2c0.4-0.2,0.2-0.6,0.2-0.9l0.1-0.5c0-0.2,0.2-0.6,0.1-0.8c-0.4-0.6-0.2-1.2-0.1-1.7c0-0.4-0.1-0.5-0.1-0.7
		c0-0.2,0.2-0.4,0.2-0.6v-0.1c-0.2-0.8-0.1-1.5,0.4-2.4c0-0.1,0.2-0.4,0-0.6c0-0.1,0-0.2,0.1-0.4c0.1-0.1,0.2-0.4,0.2-0.6
		c0.2-0.2,0-0.6,0.1-0.8c0.2-0.4,0.1-0.7,0-1.1v-0.4c0.1-0.5,0.1-0.9,0.2-1.4c0.1-0.5,0-0.8-0.4-1.2c-0.1-0.1-0.2-0.2-0.2-0.4
		c0-0.1,0.1-0.1,0.2-0.1h0.2v-0.1c0.1-0.4,0.2-0.6,0.5-0.8c0.2-0.2,0.6-0.7,0.1-1.1c0-0.1,0-0.4,0.1-0.5c0.2-0.1,0.2-0.4,0.1-0.5
		c-0.4-0.4-0.5-0.6-0.4-1.1c0-0.2-0.2-0.5-0.2-0.8c-0.1-0.1-0.1-0.2-0.1-0.4c0.1-0.1,0.1-0.1,0.2-0.1c0.1,0,0.1,0,0.1,0.1
		c0,0.1,0.1,0.2,0.2,0.1c0.1-0.1,0.2-0.2,0.2-0.5v-0.5c-0.1-0.1-0.4,0.1-0.4,0c-0.1-0.4-0.5-0.5-0.4-0.8v-0.7
		c0.1-0.5,0.1-1.1,0.6-1.3c0.1,0,0.1-0.1,0.2-0.2v-0.1c-0.2,0-0.2-0.1-0.2-0.1c0.1-0.2,0-0.4-0.2-0.4c0-0.1-0.1,0-0.2-0.1
		c0.1-0.2,0.1-0.4,0.1-0.5l0.2-0.2c0-0.1,0-0.2,0.2-0.2c0.2,0.1,0.2,0,0.2-0.2s-0.1-0.5-0.2-0.7c-0.2,0.2-0.5,0.4-0.6,0.6
		c-0.1,0.1-0.2,0.1-0.2,0c-0.1-0.1-0.4-0.2-0.4-0.5v-0.5c-0.1-0.2-0.1-0.5,0-0.7c0.1-0.2,0.4-0.4,0-0.6c-0.1,0-0.1-0.1-0.1-0.1
		c0.2-0.2,0.1-0.5,0.1-0.7c0.1,0.1,0.4,0.1,0.5,0.2c0.2,0.4,0.6,0.7,0.6,1.3c0,0.1,0,0.2,0.1,0.2c0.2,0,0.2-0.1,0.2-0.4v-0.2
		c0-0.2-0.1-0.5,0.2-0.6h0.1c-0.2-0.2,0-0.5-0.4-0.6c0,0-0.1,0-0.1-0.1c0.1-0.2-0.1-0.5,0-0.7c0-0.1,0-0.2,0.1-0.4
		c0.4-0.2,0.6-0.6,0.6-0.9c-0.1-0.4,0-0.5,0-0.7c0-0.1,0.2-0.2,0.1-0.4c-0.4,0-0.6-0.1-0.8-0.2c-0.2-0.1-0.5-0.1-0.7,0.2
		c0-0.5-0.4-0.8,0.2-1.2c0.1,0.4,0.4,0.5,0.7,0.5c-0.1-0.2,0.2-0.5,0.1-0.7c-0.1,0-0.1,0.1-0.2,0.2c0,0,0,0.1-0.1,0
		c0-0.1-0.1-0.1,0-0.2l0.1-0.1c0.1-0.1,0.1-0.2,0.1-0.4l0.1-0.5c0.1-0.1,0.2,0.1,0.4,0c0.1-0.5,0.4-0.7,0.1-1.2c0-0.1,0-0.4,0.1-0.5
		c0.2,0.1,0.4,0,0.5,0.1c0.2,0.1,0.1,0.4,0,0.5h0.1c0.1,0.4,0.2,0.6,0.7,0.7c0.4,0,0.8,0.1,0.9,0.6c0,0.1,0.1,0.2,0.2,0.2
		c0.2,0,0.5,0.1,0.6,0.4h0.2c0.6,0.2,1.1,0.5,1.4,0.8c0.2,0.1,0.4,0.2,0.6,0.1c0.1-0.1,0.2-0.1,0.2,0.1c0,0.1,0.1,0.2,0.2,0.1
		c0.2-0.1,0.4,0,0.5,0.1c0.2,0,0.4,0,0.5-0.1c0.2,0,0.4,0,0.5-0.1c0.2,0,0.4,0,0.5-0.1c0.1-0.2,0.2-0.2,0.5-0.1
		c0.2,0.1,0.5,0.2,0.7,0c0.2,0.2,0.4,0,0.6-0.1c0.4-0.2,0.7-0.4,1.1-0.4c0.2,0.1,0.5,0,0.6-0.1c0.6-0.2,1.2-0.2,1.6-0.4
		c0.4-0.1,0.7-0.1,1.1-0.2c0.4-0.1,0.7-0.2,1.1-0.5c0.1,0,0.2,0,0.4-0.1c0.6-0.1,1.2-0.2,1.6-0.6c0.2-0.2,0.6-0.5,0.8-0.6
		c0.5-0.1,0.7-0.4,1.1-0.5c0.3-0.2,0.6-0.6,1.1-0.7c0.4-0.1,0.6-0.4,0.9-0.4c0.7-0.4,1.4-0.8,2-1.4c0.4-0.5,0.8-0.8,1.4-1.2
		c0.4-0.5,0.9-0.7,1.3-1.3c0-0.1,0.2-0.1,0.4-0.2c0.1-0.1,0.2-0.1,0.2-0.1c0.5-0.6,0.9-1.1,1.2-1.7l0.4-0.6c0-0.1,0.1-0.1,0.2-0.2
		c0.4,0,0.6-0.5,0.5-0.7c0-0.2,0-0.4,0.2-0.4c0.1-0.1,0.2-0.1,0.2-0.4c0-0.4,0.2-0.6,0.5-0.8c0-0.1,0.1-0.1,0-0.2
		c0-0.4,0-0.6,0.2-0.8l0.4-1.1c0.1-0.5,0.1-0.9,0.5-1.3c-0.2-0.1,0.1-0.2,0-0.4c-0.1-0.5,0.1-1.1,0.4-1.4l0.2-0.6
		c0.1-0.5,0.1-0.9,0.2-1.4c0.1-0.4,0.1-0.7,0.2-0.9c0.1-0.1,0-0.2,0-0.4c0-0.7,0.2-1.2,0.8-1.3c0.5,0,0.8-0.4,0.9-0.7
		c0.1-0.2,0.4-0.4,0.2-0.5c-0.1-0.4,0-0.5,0.2-0.7c0,0,0.1-0.1,0.1-0.2c-0.4,0-0.5-0.2-0.7-0.5c-0.2-0.1-0.4-0.2-0.6-0.2h-0.2
		c-0.1,0.1-0.2,0-0.2-0.2v-1.2c0.1-0.4,0-0.8,0.2-1.2v-0.1c-0.1-0.5,0-0.8,0-1.2c0.1-0.4,0.2-0.7,0-1.1v-0.4c0-0.2,0.1-0.6,0-0.8
		c-0.2-0.4,0-0.6,0-0.9c0-0.2-0.2-0.5-0.1-0.8c0.1-0.5-0.1-0.9-0.4-1.4c-0.2-0.4-0.1-0.6,0-0.8c0-0.1,0-0.1,0.1-0.2
		c0.1-0.2-0.1-0.6-0.3-0.7c-0.2,0-0.4-0.2-0.1-0.4c0.1-0.1,0-0.2,0.1-0.4c0-0.1-0.2-0.1-0.4-0.2c0.1-0.1,0.2-0.2,0.1-0.5
		c-0.1-0.5-0.4-0.9-0.1-1.4c0.1-0.2,0.1-0.6-0.1-0.8c-0.1-0.1-0.1-0.2,0-0.5c0.1-0.2,0-0.4-0.1-0.6c-0.4-0.2-0.5-0.7-0.7-1.2
		c0.1-0.6-0.5-1.1-0.6-1.7l-0.2-0.2c-0.4-0.2-0.8-0.5-1.1-0.8c-0.1-0.4-0.5-0.7-0.6-1.1c-0.2-0.4-0.4-0.5-0.6-0.7
		c-0.4-0.4-0.6-0.7-0.9-0.9c-0.1-0.1-0.1-0.4-0.4-0.4c-0.5-0.4-1.1-0.7-1.4-1.2c-0.4-0.5-0.8-0.8-1.2-1.2c-0.1,0-0.2-0.1-0.4-0.1
		c-0.4,0-0.4,0-0.6-0.2c-0.1-0.1-0.2-0.2-0.2-0.5c-0.1-0.1-0.2-0.4-0.5-0.4c-0.2-0.1-0.2-0.2-0.4-0.4c0-0.2-0.2-0.2-0.4-0.2
		c-0.1,0-0.2,0.1-0.4,0.1c-0.4,0.2-0.7,0.1-0.9-0.2c-0.2-0.1-0.4-0.2-0.5-0.1c-0.2,0-0.5,0-0.7-0.2l-0.1,0.1
		c-0.1,0.1-0.1-0.1-0.1-0.1c-0.1-0.1-0.1,0-0.2,0.1c0,0.1-0.1,0-0.2,0c-0.4-0.1-0.6-0.2-0.9-0.2c-0.6,0-1.3,0.1-1.9,0.2
		c-0.4,0-0.7-0.1-1.1,0.1c-0.1,0.2-0.4,0.5-0.7,0.5c-0.2,0.4-0.7,0.5-1.1,0.7c-0.1,0.1-0.2,0.2-0.5,0.1c-0.1-0.1-0.2,0-0.2,0.1
		c-0.1,0.2-0.2,0.2-0.5,0.1c-0.1,0-0.2,0-0.4,0.1c-0.4,0.2-0.8,0.5-1.3,0.6c-0.7,0.2-1.2,0.7-1.6,1.2c-0.5,0.4-0.9,0.7-1.4,0.9
		c-0.4,0.2-0.6,0.6-0.8,0.8c-0.1,0.2-0.2,0.5-0.4,0.6c-0.1,0.1-0.2,0.2-0.2,0.5c0,0.2-0.1,0.5-0.4,0.6c-0.2,0.1-0.4,0.2-0.2,0.4
		c0.2,0.2,0.1,0.5,0,0.6c-0.6,0.7-0.7,1.4-0.7,2.4v0.7c0,0,0,0.1-0.1,0.2c-0.2,0.1-0.4,0.2-0.4,0.6h-0.1c-0.1,0-0.1,0-0.1-0.1v-0.1
		c0-0.5,0-1.1-0.2-1.5c-0.1-0.1-0.1-0.4,0-0.5c0-0.2,0.1-0.5-0.1-0.7c-0.1,0-0.1-0.1-0.1-0.2c0.2-0.2,0.1-0.2,0-0.4
		c-0.5-0.4-0.8-0.7-1.2-0.9l-0.4-0.2c-0.1-0.1,0-0.4-0.4-0.4c-0.2,0-0.2-0.4-0.5-0.4c-0.1,0.1-0.1,0-0.1-0.1s-0.1-0.1-0.1-0.1
		c-0.1,0.1-0.2,0-0.2,0C107,6,106.7,6,106.6,6l-0.7-0.4c-0.2,0-0.5-0.4-0.7-0.5l-0.9-0.4c-0.4-0.1-0.7-0.2-1.1-0.2
		c-0.4,0.1-0.6,0.1-0.8-0.1c-0.2,0-0.4-0.1-0.5-0.1c-0.4,0.1-0.7,0-1.1-0.1c-0.1-0.1-0.4-0.1-0.4-0.1c-0.1,0.1-0.1,0.2-0.1,0.4
		c-0.2,0-0.4-0.2-0.5-0.2h-0.2c0-0.4-0.4-0.4-0.5-0.5c-0.9-0.4-1.9-0.6-2.9-0.7c-0.5,0-1.1,0-1.4-0.4c-0.1-0.2-0.4-0.1-0.5-0.1
		c-0.5,0-0.9,0-1.4-0.1c-0.2-0.1-0.5-0.1-0.7,0.1c0,0.1-0.1,0.1-0.2,0.1c-0.2-0.1-0.5,0.1-0.7,0.2c-0.4,0.1-0.5,0.4-0.5,0.7
		l-0.1,0.5c0,0.2,0.1,0.5,0,0.7c0,0,0,0.1,0.1,0.2v0.2c-0.2,0.2,0,0.5,0.1,0.6c0.1,0.2,0.1,0.6,0.4,0.7c0.2,0,0.5,0.1,0.6,0.4
		c0,0.5,0.2,0.8,0.4,1.3c0,0.2,0.1,0.6,0,0.9c-0.4,0.6-0.4,1.2-0.2,1.7c0,0.2,0.1,0.4,0.1,0.5c-0.1,0.2-0.1,0.6,0.2,0.7
		c-0.1,0.1-0.4,0.2-0.4,0.5c0.1,0.2,0.1,0.4-0.1,0.6c-0.2,0.1-0.4,0.2-0.1,0.5c0.2,0.2,0.2,0.5,0,0.6c-0.1,0.1-0.1,0.2-0.1,0.4
		c0,0.1,0,0.4-0.1,0.5c-0.1,0.1-0.1,0.2-0.1,0.5c0.1,0.4,0,0.7-0.1,1.2c0,0.2-0.1,0.6,0.2,0.7c0.1,0.1,0.1,0.2,0.1,0.4
		c0,0.2-0.2,0.4-0.1,0.5c0.2,0.4,0.1,0.5-0.1,0.7v0.4c-0.1,0.8-0.4,1.7-0.4,2.5V22c-0.1,0.4-0.1,0.7,0,0.9c0.1,0.2,0.2,0.6-0.1,0.8
		c-0.1,0-0.1,0.1-0.1,0.2l0.1,0.8c0,0.4,0.2,0.7-0.1,0.9V26v1.1c0,0.5,0.2,0.8,0.5,1.2c-0.1,0.1-0.4,0.2-0.4,0.5
		c0.1,0.5-0.2,0.7-0.4,0.9c-0.1,0.1-0.1,0.2-0.1,0.4c0.2,0.2,0.1,0.6,0,0.8c0,0.2-0.1,0.4-0.1,0.6v2c0,0.2,0,0.5,0.1,0.7
		c0.1,0,0.2,0.2-0.1,0.4c-0.1,0-0.1,0.1,0,0.1c0.1,0.1,0,0.2,0,0.5v0.6c0,0.1,0,0.4,0.2,0.5c0.1,0,0.1,0.2,0,0.4
		c0,0.4-0.1,0.6-0.1,0.9c0.1,0.2,0.1,0.6,0.1,0.8c0,0.4,0,0.6-0.2,0.8c-0.2,0.1-0.2,0.6-0.1,0.7c0.1,0.4,0.1,0.4,0,0.6
		c-0.1,0.1-0.1,0.4,0,0.5c0.1,0.5-0.1,0.8,0,1.3c-0.2,0.1,0,0.4,0,0.5c-0.2,0.6-0.2,0.6,0,1.2c0.1,0.1,0.1,0.1,0,0.2v0.4
		c0.2,0.2,0.1,0.5,0,0.6c-0.2,0.4-0.1,0.6,0,0.8c0.1,0.1,0.1,0.4,0,0.5c-0.1,0-0.1,0.1-0.1,0.2c0.2,0.1,0.1,0.4,0.1,0.6
		c-0.1,0.1-0.1,0.4,0,0.5v0.2c-0.1,0.4,0,0.7-0.2,1.1c0,0.1-0.1,0.1,0,0.1c0.1,0.1,0.1,0.2,0.1,0.4c-0.1,0.2-0.1,0.5,0,0.6
		c0.2,0.2,0,0.5,0.1,0.6c0.1,0.1,0,0.1-0.1,0.2c-0.1,0.1-0.1,0.2,0,0.5c0,0.1,0.2,0.2,0,0.4c0,0.1,0.2,0.1,0.2,0.2
		c0.1,0.2,0,0.7-0.1,0.7c-0.4,0.1-0.1,0.2-0.2,0.4c-0.1,0.4,0.1,0.6,0,0.8c0,0.5,0.1,1.1,0.1,1.7c0.1,0.2,0,0.4-0.1,0.5
		c-0.2,0.4-0.4,0.7,0,1.2c0.1,0.1,0.2,0.4,0,0.6c-0.1,0.2,0,0.5,0.1,0.6c0.1,0.1,0.2,0.2,0.2,0.4c0,0.4,0,0.7-0.1,1.1
		c-0.2,0.4-0.2,0.7,0,1.1c0.1,0.4-0.1,0.4-0.2,0.5c-0.2,0.2-0.2,0.1-0.1,0.5v0.1c-0.2,0.5-0.1,0.9-0.2,1.4c0.2-0.1,0.4-0.1,0.5-0.2
		c0,0,0-0.2,0.1-0.1c0.1,0,0.2,0.1,0.2,0.2c0,0.2,0.1,0.4,0.1,0.6v0.2c-0.1,0.1-0.2,0.1-0.4,0c-0.1,0-0.2-0.2-0.4-0.1
		c-0.1,0.1-0.2,0.2-0.2,0.5v1.2c0.1,0.2,0.1,0.5,0.4,0.7c0,0,0.1,0.1,0.1,0.2c0,0.4,0,0.7-0.1,1.1c-0.1,0.4-0.1,0.7,0,1.1
		c0.1,0.2,0.1,0.4,0.1,0.5c-0.1,0.1,0,0.2,0,0.4c0.1,0.1,0.2,0.4,0.2,0.5c-0.4,0.1-0.5,0.2-0.2,0.5c0,0.4,0,0.5-0.1,0.7
		c-0.1,0.2-0.4,0.6-0.2,0.8c0.2,0.5,0,1.1,0.2,1.7c-0.2,0.4,0,0.8-0.1,1.3c0,0.1-0.1,0.2,0,0.2c0.2,0.2,0.1,0.5-0.1,0.6
		c-0.1,0.1-0.1,0.2-0.1,0.4c0,0.4,0.2,0.6,0.2,0.9c0.1,0.1,0.1,0,0.2,0c0.2,0,0.4,0.2,0.4,0.2c-0.4,0.4,0,0.6,0,0.8
		c-0.1,0.2,0.2,0.7-0.2,0.7c-0.1,0-0.1,0.1-0.1,0.1c-0.2,0.2,0,0.5-0.1,0.7c0,0.2,0.2,0.2,0.4,0.4c0,0.1,0.1,0.2,0.1,0.4
		c0,0.4,0.2,0.5,0.5,0.6c0.1,0.1,0.1,0.1,0.1,0.2c0,0.4,0,0.6-0.1,0.9c-0.2,0.2-0.6,0.4-0.9,0.5c-0.1,0.1-0.2,0.1-0.2,0.2h0.2
		c0.1-0.1,0.2,0,0.4,0.1c0.1,0.1,0.2,0.4,0.5,0.5c0.1,0,0.1,0.2,0.1,0.4c-0.1,0.1,0,0.1,0,0.2c0.2,0.4,0.5,0.7,0.7,0.9
		c0.1,0.1,0.1,0.2,0.1,0.5c-0.4,0.4-0.4,0.8-0.1,1.2c0.1,0.1,0.1,0.4,0,0.5c-0.1,0.1-0.1,0.4-0.1,0.5c0.1,0.2,0,0.2,0,0.4
		c-0.2,0.9,0.2,1.4,0.9,1.4c0.1,0.1,0.4,0,0.4-0.1c0-0.2,0.1-0.4,0.1-0.6c0-0.1-0.2-0.2,0-0.2c0.1-0.1,0.1,0.1,0.2,0.2
		c0,0,0.1,0.1,0.1,0.2c0,0.5,0.4,0.7,0.7,0.7c0.1,0.1,0.2,0.2,0.2,0.4c0.2,0.5,0.5,0.8,0.6,1.4c0,0.1,0,0.2,0.1,0.2
		c0,0.1,0.1,0.2,0.2,0v-0.1c0.2,0,0.2,0.4,0.6,0.2c0-0.1,0.2,0.1,0.2,0.4v0.4c0,0.5,0.1,0.9,0.7,1.2l0.1,0.1
		C97.1,93.7,97.6,93.8,97.9,93.8 M71.6,85.2h0.1c0.2-0.1,0.5-0.1,0.6-0.2c0.1-0.1,0-0.2,0.1,0c0,0,0,0.1,0.1,0.1L73,85
		c0.1,0,0.1-0.1,0.1-0.1L73,84.7L72,84.4c-0.1,0-0.1-0.1-0.2,0C71.4,84.5,71.4,85,71.6,85.2 M70,76.4c-0.1,0-0.1-0.1-0.1-0.1v-0.2
		c0.1,0.1,0.2,0.1,0.2,0.2C70.1,76.4,70.1,76.4,70,76.4 M69.8,74c-0.2-0.2-0.4-0.5-0.4-0.7c0-0.1,0-0.2-0.1-0.4
		c0-0.2-0.1-0.4,0.1-0.5c-0.1-0.4,0.2-0.4,0.4-0.6c-0.2-0.1-0.4-0.2-0.4-0.5c0-0.2-0.1-0.6,0.4-0.7c0.1,0,0.2,0.2,0.2,0.5v0.1
		c0.1,0.2,0,0.4-0.2,0.5v0.1c0.2,0.1,0,0.5,0.4,0.5c0.1,0.1,0.1,0.4,0.4,0.5c0.1,0,0.1,0.1,0,0.2c0,0-0.1,0.1-0.1,0.2
		C70.2,73.4,70,73.6,69.8,74 M86,66.4c0-0.1-0.1-0.2-0.2-0.2c-0.4,0-0.2-0.2-0.2-0.5c0.2,0.2,0.5,0.2,0.7,0.1c0-0.1,0.1-0.1,0.1,0
		c0.1,0.1,0.1,0.2,0,0.4C86.3,66.3,86.3,66.5,86,66.4 M68.4,65.1c-0.4,0.1-0.4-0.1-0.6-0.2c0.1,0,0.2-0.4,0.4-0.4L68.4,65.1z
		 M70,59.4c-0.2-0.2-0.4-0.5-0.2-0.8c0-0.1,0-0.5,0.1-0.6c0.2,0.1,0.4,0.4,0.6,0.4c0.2,0.1,0.4,0.2,0.4,0.5c0,0-0.1,0-0.1,0.1
		c-0.1,0-0.1,0-0.1-0.1c-0.2-0.1-0.5-0.1-0.5,0.1v0.2C70.1,59.3,70.1,59.4,70,59.4 M70.2,57.1c-0.5-0.4-0.6-0.8-0.6-1.3
		c0-0.4,0.1-0.6,0.1-0.9c0.1-0.1,0.2-0.1,0.4,0c0,0.1,0.1,0.2,0.1,0.4c0,0.2,0.1,0.4,0.1,0.5c0.1,0.1,0.1,0.1,0.2,0.1
		c0.2-0.1,0.4,0,0.4,0.1c0.1,0.5,0,0.8-0.2,1.1C70.5,57.2,70.4,57.2,70.2,57.1 M71.1,54.5c-0.2-0.1-0.4-0.5-0.2-0.5
		c0.5-0.4,0.4-0.7,0.4-1.1v-0.1c0-0.1,0.1-0.1,0.1-0.1c0.2,0.5,0.4,1.1,0.1,1.5C71.4,54.4,71.4,54.6,71.1,54.5 M69.1,90.4
		c0.2-0.1,0.5-0.1,0.7-0.1c0.2,0,0.5-0.1,0.7-0.2c0.2-0.1,0.5,0.1,0.7,0c1.2-0.1,2.1-0.6,3.2-1.1c0.2-0.2,0.5-0.5,0.7-0.5l0.2-0.2
		c0.2-0.5,0.7-0.7,0.9-1.1c0.4-0.4,0.8-0.4,1.1-0.7c0-0.1,0.1-0.1,0.2-0.1c0.5-0.1,0.7-0.7,1.2-0.9c0.1-0.1,0.1-0.4,0.2-0.5
		c0-0.2,0.1-0.5,0.4-0.5c0.1-0.1,0.2-0.2,0.4-0.5c0.2-0.7,1.1-1.3,1.4-2c0.1,0,0.1,0,0.2-0.1c0.4-0.2,0.8-0.6,0.8-1.2
		c0-0.2,0.2-0.4,0.4-0.6c0-0.1,0.1-0.2,0.2-0.5c0.2-0.2,0.5-0.5,0.4-0.9c0,0,0.1-0.2,0.1-0.4c0.1,0,0.1-0.1,0.2-0.2
		c0.2-0.4,0.4-0.8,0.6-1.2c0-0.1,0-0.1,0.1-0.2c0.4-0.2,0.4-0.7,0.5-1.1c0-0.2,0-0.4,0.1-0.6c0-0.1,0.1-0.4,0.2-0.5
		c0.1-0.2,0.2-0.5,0.2-0.7c-0.1-0.2,0.2-0.4,0.2-0.5v-0.1c-0.1-0.2,0-0.5,0.1-0.6c0.1-0.2,0.4-0.5,0.1-0.8l0.1-0.1l0.2-0.4
		c0.2-0.4,0.2-0.7,0.5-1.1c-0.1-0.5,0-0.7,0.4-1.1c0.1,0,0.1-0.1,0.1-0.1c-0.2-0.5,0.1-0.8,0.2-1.2c0.1-0.1,0.2-0.1,0.2-0.2
		c0-0.5,0.1-0.7,0.4-0.9c0.1-0.2,0.2-0.6,0-0.8c-0.1,0-0.1-0.1-0.1-0.1c0.1-0.2,0.1-0.5,0-0.7c-0.1-0.2,0.1-0.4,0-0.6
		c-0.1-0.4-0.1-0.7,0.2-0.9c0.1,0,0.1-0.1,0.1-0.2c0.1-0.4-0.1-0.7-0.4-1.1c0.2-0.1,0.4,0,0.5,0c0.2-0.2,0.4-0.4,0.6-0.5
		c0.1-0.1,0.1-0.2,0.1-0.4c-0.2-0.4,0-0.4,0.2-0.4c0.1,0,0.2-0.1,0.1-0.2c0-0.1,0-0.2,0.1-0.4c0.2-0.2,0.1-0.4,0-0.5l-0.2-0.2
		c-0.1-0.4-0.1-0.7,0-0.9c0.1-0.2,0.2-0.2,0.4-0.5c0.1-0.1,0.2-0.2,0.2-0.5c0-0.2,0-0.6,0.2-0.7c0.1,0,0.1,0,0.1-0.1
		c0-0.1-0.1-0.2-0.1-0.4c0-0.1,0.2-0.2,0.1-0.5c0,0,0.1-0.1,0-0.2c-0.1-0.4-0.2-0.5-0.6-0.6c-0.2-0.1-0.4-0.2-0.6-0.1
		c-0.1,0.1-0.1,0.1-0.1,0c-0.1-0.2-0.4-0.2-0.6-0.4c-0.1-0.1-0.2,0-0.5,0.1h-0.1c0-0.1-0.1-0.4-0.4-0.4c-0.2,0.2-0.4,0.4-0.4,0.8
		c0,0.1,0,0.4-0.1,0.5c-0.1,0.2-0.2,1.1-0.2,1.3c0.1,0.1,0,0.2,0,0.4c-0.2,0.4-0.4,0.8-0.1,1.3c0.2,0.2,0.1,0.6-0.4,0.7
		c-0.2,0.1-0.4,0.4-0.5,0.7v0.4c0,0.1,0.1,0.1,0.2,0.1c0.1,0.1,0.2,0.1,0.1,0.2c0,0.2,0.1,0.4,0.2,0.4c0.1,0.1,0.2,0.1,0.2,0
		c0.2-0.1,0.4-0.5,0.6-0.6c0.1-0.1-0.1-0.4,0-0.5c0-0.1-0.1-0.2-0.1-0.2c-0.1-0.2,0.1-0.5,0.1-0.7c0-0.1,0.2-0.1,0.4-0.1
		c0.2-0.1,0.5-0.4,0.6-0.6c0.2,0.2,0,0.5,0,0.7v0.7c0,0.1-0.1,0.4-0.2,0.6v0.1c0,0.4-0.1,0.5-0.4,0.6c-0.1,0.1-0.1,0.2-0.1,0.4
		c0.1,0.1,0.2,0.2,0.1,0.4c0,0.2-0.1,0.4-0.1,0.7c0.1,0.1,0,0.4,0,0.6c0,0.2-0.1,0.4-0.2,0.4l-0.4,0.4c0-0.4,0-0.4-0.4-0.5
		c-0.2,0-0.4-0.1-0.4-0.4v-0.2c0-0.2-0.1-0.2-0.4-0.2C85.3,63,85,63,84.9,63.3c0,0.1-0.1,0.2-0.2,0.5c0,0.2-0.1,0.4-0.4,0.5
		c-0.1,0.1-0.2,0.4-0.2,0.5v0.8c0.1,0.1,0.1,0.2,0,0.5c0,0.2-0.1,0.4-0.2,0.6c-0.2,0.2-0.2,0.6,0,0.8c0.1,0.2,0,0.4,0.1,0.6
		c0.2,0.4-0.2,0.2-0.4,0.5c-0.2,0.4-0.2,0.6,0,0.8c0,0.2-0.1,0.5,0.1,0.5c0.2,0,0-0.2,0.1-0.4c0.1,0,0.2-0.1,0.2-0.1
		c0.1-0.1,0.4-0.4,0.2-0.5c-0.2-0.4-0.1-0.6-0.1-0.9c0,0,0-0.1,0.1-0.2c0.2-0.1,0.6-0.5,0.9-0.2l0.1-0.1c0-0.2,0-0.4,0.2-0.4
		c0.2,0,0.4,0.1,0.4,0.4c0,0.1,0,0.2-0.1,0.5c-0.1,0.4-0.2,0.7-0.2,1.1c0,0.1,0.1,0.1,0,0.2L85.1,69c-0.2,0.1-0.1,0.4-0.2,0.5
		l-0.4,0.2c0,0.2-0.2,0.4,0,0.6c0,0.1,0,0.2-0.1,0.4c-0.2,0.1-0.6,0.2-0.8,0.5c0-0.4,0.2-0.6,0-0.9c-0.2,0.2-0.6,0.1-0.8,0.2
		c-0.2,0.2-0.2,0.6-0.5,0.8c0,0.1-0.1,0.2-0.1,0.2c0.2,0.4-0.2,0.5-0.2,0.7c-0.6-0.1-0.7,0.6-1.2,0.7c-0.2,0.6-0.7,1.1-0.6,1.9v0.1
		c0.1,0,0.1,0.2,0.2,0.1c0.1-0.1,0.2-0.1,0.4,0c0.1,0.1,0.2,0.2,0.5,0.1c0.1-0.1,0.4-0.1,0.5-0.4c0-0.4,0.4-0.5,0.6-0.7
		c0-0.1,0.1-0.1,0.1-0.1c0.1,0.1,0.2,0.1,0.1,0.2v0.6l0.1,0.1c0.1,0,0.2,0,0.2-0.1c0-0.1,0.1-0.2,0.2-0.1c0.1,0.1,0.2,0.1,0.2,0.4
		c-0.1,0.2-0.5,0.6-0.7,0.5c-0.4-0.1-0.6,0.1-0.7,0.4c-0.1,0.2-0.5,0.5-0.2,0.8v0.2c-0.1,0.4-0.4,0.6-0.6,0.7
		c-0.1,0-0.2-0.2-0.5-0.2c-0.1,0-0.2-0.1-0.5,0c-0.5-0.5-0.8-0.1-1.2,0.2L78.8,78c-0.1,0.1-0.1,0.2-0.1,0.5
		c-0.1,0.2-0.2,0.4-0.4,0.5c-0.2,0.1-0.4,0.1-0.6-0.1c-0.1,0.2-0.6,0.2-0.6,0.5c0,0.1,0,0.2-0.1,0.2c-0.4-0.1-0.6,0-0.6,0.4
		c-0.1,0.1-0.1,0.2-0.2,0.2c-0.2,0.2-0.2,0.5-0.2,0.7v0.2c-0.5,0.6-0.6,1.4-1.2,2c0,0.1-0.1,0.2-0.1,0.4c0,0.4-0.1,0.6-0.5,0.6
		c-0.2,0-0.5,0.4-0.4,0.5c0.1,0.1,0.1,0.5,0.5,0.6c0.4,0,0.2,0.7,0,0.8c-0.1,0.1-0.9,0.4-1.1,0.4c-0.4,0-0.6,0-0.6,0.4
		c0,0.1-0.1,0.1-0.2,0.1c-0.1,0-0.2,0-0.2-0.1c0.1-0.2-0.1-0.4-0.2-0.6c-0.1,0.1-0.1,0.4-0.4,0.2c-0.4-0.1-0.5,0.1-0.6,0.4
		c0,0.1-0.1,0.2-0.2,0.2l-0.4-0.4c-0.2,0-0.2-0.1-0.1-0.4c0-0.6,0-0.6-0.2-1.2v-0.1c0-0.2-0.1-0.2-0.2-0.4c0-0.2-0.4-0.2-0.4-0.4
		c0.1-0.2,0.1-0.4,0.1-0.6c0.1-0.1,0.1-0.2,0.1-0.4c0-0.6,0-1.1-0.2-1.7c0-0.4-0.1-0.7,0.2-0.9c0.1,0,0.2-0.1,0.2-0.4
		c0-0.1,0-0.4,0.2-0.4c0-0.2,0.4-0.4,0-0.6c0-0.2-0.2-0.6,0.1-0.8c0.1-0.1-0.1-0.4,0-0.5c0.1-0.1,0-0.2-0.4-0.1
		c-0.2,0-0.4-0.1-0.5-0.4c-0.1-0.2,0-0.5,0.1-0.6c0.1,0,0.2-0.1,0.2,0c0,0.4,0.2,0.4,0.5,0.4c0-0.4,0.4-0.5,0.6-0.8
		c0-0.1,0.1-0.2,0-0.5v-0.5c0.1-0.2,0.1-0.4,0.1-0.6c0-0.2-0.1-0.5,0.2-0.6c0.2-0.1,0.4-0.5,0.1-0.7c-0.2-0.4-0.2-0.7-0.1-0.9
		c0.1-0.4,0-0.6-0.1-0.8c-0.2-0.4-0.1-0.8,0.1-1.1c0.1-0.4,0.4-0.7,0.4-1.1c0-0.1,0.1-0.2,0.1-0.4c0.4-0.4,0.7-0.8,0.8-1.3
		c0.1-0.4,0-0.6-0.1-0.8c0-0.1-0.6-0.2-0.7-0.2c-0.2,0.2-0.2,0.5-0.2,0.7c0,0.1,0,0.2,0.1,0.5c0,0,0,0.1-0.1,0.2
		c-0.2,0.1-0.4,0.4-0.5,0.5c-0.2,0.4-0.2,0.4-0.5,0.1c-0.1-0.2-0.1-0.4,0-0.6c0-0.1,0.1-0.1,0.1-0.2c-0.4,0-0.5,0.1-0.7,0.4
		c-0.5,0.2-1.1,0-1.1-0.5c0-0.2,0.1-0.5,0.2-0.6c0.2-0.2,0.4,0,0.5,0.1h0.1v-0.2c0.1-0.5,0.1-0.5-0.2-0.6c-0.4,0-0.4,0-0.4-0.5
		c0.1-0.1,0.1-0.1,0-0.2c-0.4-0.2-0.4-0.6-0.2-0.9c0-0.4,0.1-0.6,0.4-0.7c0.4-0.1,0.4-0.5,0.2-0.8c0-0.1,0-0.2,0.1-0.4
		c0.1-0.2,0.1-0.5,0-0.7c-0.1-0.5,0-0.8,0-1.3c0.2,0.1,0.2,0.4,0.4,0.6c0.1,0.1,0.4,0.1,0.5,0.2c-0.1,0.2-0.5,0.5-0.1,0.8
		c-0.2,0.2-0.1,0.5,0.1,0.7c0,0.1-0.1,0.4,0.1,0.4c0.1,0,0.1,0,0.1,0.1c-0.1,0.1-0.2,0.2-0.2,0.4c-0.1,0.2-0.4,0.5-0.1,0.8
		c0.1,0.4,0,0.7-0.1,1.1c-0.1,0.2-0.1,0.4,0,0.7c0,0.1,0.1,0.2,0.2,0.1h0.4c0.2,0.1,0.5,0,0.5-0.2c0.1-0.2,0.4-0.4,0.5-0.6
		c0-0.4,0.4-0.2,0.6-0.5c0.1-0.1,0.2-0.2,0.4-0.5c0.1-0.2,0.1-0.5,0.4-0.7c0.2-0.4,0.1-0.7-0.2-1.1c-0.1-0.1-0.4-0.1-0.5-0.2
		c0.2-0.1,0.2-0.4,0.4-0.6c0.1-0.2,0-0.5-0.2-0.5c-0.1,0-0.1-0.1-0.1-0.2c0.2-0.2,0.5-0.5,0.7-0.7v0.6c0,0.1,0.1,0.1,0.2,0.1
		c0.1-0.1,0.2-0.2,0.1-0.5c-0.1-0.2,0-0.4,0.1-0.6c0-0.2,0.2-0.1,0.4-0.1c0,0,0.1-0.1,0.1-0.2c-0.1-0.2,0-0.6,0-0.8
		c0.1-0.2-0.1-0.4-0.2-0.5c-0.1-0.1-0.1,0-0.2,0.1c-0.1,0-0.1-0.1-0.2-0.1c-0.2,0.1-0.2,0-0.1-0.1c0-0.1,0.2-0.2,0.1-0.4
		c-0.2-0.4-0.1-0.5,0.1-0.7c0-0.1,0.1-0.2,0.1-0.4c0-0.5,0.2-0.9,0.5-1.3c0.1-0.2,0.1-0.4,0.4-0.5c0.1-0.1,0.1-0.2,0-0.4
		c-0.4-0.1-0.5-0.5-0.7-0.8c0-0.1-0.1-0.5,0.1-0.6c0.2-0.1,0.2-0.4,0.4-0.5c0.4-0.6,0.4-1.3,0.1-1.9c-0.1-0.1-0.1-0.1,0-0.2
		c0.1-0.4,0.2-0.6,0.1-0.9v-0.2c0.1-0.1,0.1-0.2-0.1-0.4c-0.2-0.1-0.2-0.4-0.1-0.5c0.1-0.2,0.2-0.4,0-0.5c-0.1,0-0.1-0.1,0-0.2
		c0.1,0,0.1-0.1,0.1-0.2c-0.1-0.4,0-0.7-0.1-1.1c-0.1-0.1-0.1-0.4,0-0.6c0-0.2,0.1-0.6-0.1-0.9v-0.2c0.1-0.2,0.2-0.6,0.1-0.8v-0.4
		c0-0.1,0-0.2-0.1-0.4c-0.4-0.9-0.8-1.8-1.4-2.6l-0.4-0.4c-0.4-0.4-0.7-0.5-1.1-0.7c-0.4-0.1-0.7-0.2-1.1-0.5
		c-0.1-0.1-0.2-0.2-0.5-0.2c-0.1,0-0.2,0-0.2-0.1c-0.2-0.2-0.5-0.4-0.8-0.4c-0.1,0.1-0.2-0.2-0.4,0.1c-0.1,0.1-0.4-0.1-0.5-0.2
		c-0.1,0-0.2-0.1-0.4-0.2c-0.2-0.2-0.4-0.4-0.6-0.4c-0.5,0.1-0.9-0.1-1.4-0.1c0,0-0.1,0-0.1-0.1c-0.1-0.1-0.2-0.1-0.4-0.1
		c-0.2,0.1-0.5,0-0.8-0.1c-0.4-0.1-0.8-0.1-1.2-0.1h-0.2c-0.1-0.4-0.4-0.2-0.6-0.2c-0.7-0.1-1.4-0.1-2.1,0c-0.6,0-1.1,0-1.5,0.2
		c-0.2,0.1-0.5,0.2-0.6,0.5c0,0.2-0.1,0.6,0.1,0.8c0.1,0.1,0.1,0.4,0.2,0.5c0.1,0.4,0.2,0.6,0.2,0.8v0.6c0.1,0.4-0.1,0.8,0,1.2
		c0.1,0.1,0,0.4,0.1,0.5c-0.1,0.1-0.1,0.2,0,0.4c0.1,0.2,0.4,0.5,0.2,0.6c-0.4,0.4-0.4,0.8-0.5,1.2c0,0.2,0,0.5,0.1,0.6
		c0.1,0.2,0.1,0.5,0,0.6c-0.2,0.4-0.1,0.7,0,1.1c0,0.1,0.1,0.2,0,0.4c-0.2,0.4-0.2,0.7-0.2,1.2c0,0.1-0.1,0.4,0,0.5
		c0,0.1,0,0.2-0.1,0.2C57.9,49.7,58,50,58,50.1c0.1,0.4,0.1,0.8,0.1,1.2c0,0.2-0.1,0.4-0.2,0.6c0,0.2,0.2,0.5,0.1,0.7
		c-0.1,0.1,0,0.2-0.1,0.4c0.2,0,0.1,0.1,0.2,0.4c0,0,0,0.1,0.1,0.2c0.1,0.1,0.1,0.2,0,0.4c-0.1,0.2-0.2,0.5-0.2,0.7
		s-0.1,0.4,0.1,0.4c0.1,0.1,0,0.1,0,0.1C58,55.2,58,55.3,58,55.4v0.7c0,0.2-0.1,0.2-0.4,0.4c0.2,0.4,0.2,0.6,0.1,1.1
		c-0.1,0.1-0.1,0.2-0.1,0.5c0,0.1,0,0.4,0.1,0.5c0.1,0.1,0.1,0.2,0,0.4c-0.1,0.1-0.2,0.4,0,0.5c0.1,0.1,0.1,0.5,0,0.5
		c-0.4,0.2-0.2,0.5-0.2,0.7s0,0.6-0.1,0.8v0.4c0.2,0.2,0,0.6,0,0.8v0.7v0.6c-0.1,0.4-0.1,0.7-0.1,1.2v1.2c0,0.2-0.2,0.4-0.2,0.6
		s0.1,0.5,0.1,0.7s-0.2,0.5-0.1,0.7c0.1,0.2,0.1,0.5-0.1,0.6v0.1c0.2,0.2,0.1,0.6,0.1,0.9v1.3v1.3c0,0.2,0,0.6-0.1,0.9v0.2
		c0.1,0.2,0.1,0.5,0.1,0.6c-0.1,0.7,0.2,1.4,0.2,2c0.2,0.2,0,0.6,0.1,0.8c0.2,0.2,0.1,0.6,0.1,0.8c0.1,0.4,0,0.7,0.2,1.1
		c0.1,0.4-0.1,0.7,0,1.1c0.2,0.7,0.2,1.3,0.4,1.9c0.1,0.7,0.4,1.2,0.4,1.9c0.4,0.6,0.5,1.4,0.9,2c0.2,0.4,0.6,0.6,0.8,0.9
		c0.2,0.5,0.5,0.6,0.8,0.8c0.1,0.2,0.4,0.2,0.4,0.4c0.1,0.2,0.4,0.4,0.5,0.4c0.1,0,0.2,0.1,0.4,0.2c0.5,0.4,0.9,0.7,1.5,0.9
		c0.5,0.2,0.9,0.5,1.5,0.4c0.2,0,0.6,0,0.8,0.1c0.2,0.2,0.6,0.2,0.9,0.4c0.4,0,0.8,0.1,1.2-0.1c0.2-0.1,0.5-0.1,0.6,0.1
		C68.9,90.4,69,90.4,69.1,90.4 M72.3,23.3c-0.2-0.5,0.2-0.6,0.5-0.7c0.2-0.2,0.5-0.1,0.7,0c0,0,0.1,0.5,0.1,0.6h-0.2
		c-0.4-0.2-0.7,0-0.9,0.1H72.3z M73.9,22.3c-0.1-0.4-0.5-0.4-0.7-0.5c-0.2-0.1-0.4-0.2-0.6-0.5l-0.1-0.1c0.1-0.1,0.1-0.5,0.4-0.6
		c0.4,0.1,0.4,0.4,0.4,0.7c0,0.1,0,0.2,0.1,0.1c0.4-0.1,0.7-0.1,1.1-0.1v0.1c-0.1,0.2,0.1,0.4,0,0.5c0,0.1-0.2,0.1-0.2,0.4H73.9z
		 M73,20.2c0,0-0.1,0-0.1-0.1c0-0.1,0.1-0.1,0.2-0.2c0.1,0,0.1,0.1,0.1,0.1C73.2,20.2,73.1,20.2,73,20.2 M73.9,17.3
		c-0.1,0-0.2-0.1-0.4-0.1c-0.2-0.1,0-0.2,0-0.4c-0.1-0.1,0-0.2,0.1-0.4c0,0,0.1,0,0.1,0.1c0.1,0.2,0.4,0.4,0.4,0.6
		C74.2,17.3,74.1,17.4,73.9,17.3 M68,29.4c0.2-0.1,0.6-0.1,0.9-0.1c0.1-0.1,0.2-0.1,0.4-0.1c0.6,0,1.2-0.1,1.8-0.5
		c0.1-0.1,0.1-0.1,0.2,0c0.1,0.2,0.2,0.1,0.5,0c0.1-0.1,0.2-0.4,0.5-0.5c0.1-0.1,0.2-0.2,0.2-0.4c0-0.1,0.1-0.2,0.2-0.2
		c0.1,0,0.4,0.1,0.5,0c0.4-0.2,0.5-0.6,0.7-0.9c0-0.2-0.1-0.4-0.2-0.6c0-0.1,0-0.2-0.1-0.2c0,0.8-0.1,0.9-0.9,0.8
		c0-0.2,0.1-0.5,0.1-0.7s-0.2-0.2-0.2-0.1c-0.1,0-0.1,0.1-0.2,0.1c-0.1,0.1-0.2,0.2-0.4,0.2c-0.1,0-0.2-0.1-0.2-0.2
		c0.2-0.2,0.4-0.5,0.6-0.6c-0.2-0.1-0.5-0.4-0.6-0.5c-0.2-0.2-0.6-0.1-0.7-0.5h0.5c0.4,0,0.7-0.2,0.7-0.6c0.1-0.1,0-0.1,0.1-0.2
		c0,0,0.1-0.1,0.2,0c0,0.2,0.2,0.4,0.6,0.5c0.1,0,0.2,0,0.2,0.2c0,0.1,0,0.1,0.1,0.1c0.2,0.1,0.5,0.4,0.8,0.4c0-0.2,0-0.5,0.2-0.7
		c0.1-0.1,0.1-0.4,0.1-0.6l0.1-0.8c0-0.2,0.4-0.2,0.2-0.5c0-0.1,0-0.2,0.1-0.2c0.1-0.1,0.2-0.2,0.2-0.4c0.1-0.1,0.1-0.2,0-0.4
		c-0.1,0-0.2-0.1-0.2-0.2c0.2-0.2,0-0.6,0.2-0.8c0.4-0.7,0.4-1.1-0.1-1.4c0,0.2-0.1,0.2-0.2,0.4v-0.4c-0.1-0.5,0.1-0.8,0.6-0.7
		c0.1,0,0.2-0.1,0.2-0.1c0.1-0.5,0.2-0.9,0-1.4c0-0.1-0.1-0.2-0.1-0.5s-0.1-0.4-0.2-0.6c-0.2-0.2-0.6,0-0.8-0.2
		c-0.4,0.1-0.2-0.1-0.1-0.4v-0.1c0.1-0.2,0.1-0.2,0-0.4c-0.1-0.1-0.2-0.4-0.4-0.4c-0.1-0.2-0.2-0.4-0.2-0.6
		c-0.1-0.5-0.1-0.5-0.6-0.6c-0.2,0-0.6,0.1-0.7-0.2c-0.1-0.1-0.2-0.2-0.4-0.2c-0.2,0-0.5,0-0.5-0.2c0-0.4-0.2-0.4-0.5-0.5
		c-0.4-0.1-0.6-0.1-0.9-0.1c-0.4,0.1-0.7,0-1.1-0.4c0-0.1-0.1-0.1-0.2-0.2c-0.5-0.1-0.8-0.5-1.4-0.5c-0.1,0-0.4-0.1-0.5-0.2
		c0-0.1-0.1-0.2-0.2-0.2c-0.4,0.1-0.8-0.1-1.3-0.1c-0.2,0-0.6,0-0.9-0.1h-0.6C63.5,10,62.9,10,62.2,10c-0.2,0-0.6,0.1-0.8,0.2
		l-1.2,0.4c-0.1,0.1-0.4,0.1-0.5,0.2c-0.4,0.2-0.4,0.5-0.1,0.7c0.1,0.1,0.2,0.2,0.2,0.4c0,0.2,0,0.5,0.1,0.6
		c0.1,0.1,0.1,0.2,0.1,0.4c0,0.7,0,1.5-0.1,2.2c-0.1,0.1-0.1,0.2-0.1,0.2c0,1.1-0.1,2-0.1,3.1v1.9v1.5c0.1,0.6,0.2,1.3,0.2,2v0.7
		c0,0.5,0.2,0.7,0.2,1.2c0.5,0,0.1,0.4,0.2,0.5c0.1,0.1,0.1,0.2,0.1,0.4c0,0.1,0.1,0.1,0.2,0.1c0.1-0.1,0.2-0.2,0.1,0.1
		c0,0,0,0.1,0.1,0.1c0.7,0.5,1.4,1.3,2.5,1.3c0,0.1,0.1,0.1,0.2,0.1c0.5,0.2,0.9,0.4,1.4,0.2c0.1,0,0.2,0.1,0.1,0.2
		c0,0,0,0.1,0.1,0.1c0.2-0.1,0.4,0,0.6,0.1c0.2,0,0.5-0.1,0.6,0.1C67,29.3,67.5,29.2,68,29.4 M25.1,93.2v-0.8H25
		c-0.2,0-0.4,0-0.5,0.2c0,0.1,0.1,0.2,0.2,0.2C24.9,93,24.9,93.2,25.1,93.2 M22.3,87.7c-0.1-0.1-0.2-0.4-0.4-0.6c0,0,0-0.1,0.1-0.2
		c0.1,0,0.2,0,0.2,0.1C22.4,87.2,22.4,87.4,22.3,87.7 M22.4,86.4c0,0,0.1,0.1-0.1,0.1c-0.1,0-0.2-0.1-0.2-0.2
		c0.1-0.1,0.1-0.1,0.2-0.1C22.5,86,22.4,86.3,22.4,86.4 M42.7,85.3c-0.2,0.1-0.2,0.2-0.1,0.4c0,0.1-0.1,0.1-0.2,0.1s-0.2,0-0.4-0.1
		c-0.1-0.1-0.2-0.2-0.4-0.1c-0.1,0.1-0.2,0-0.2,0c0-0.1,0.1-0.1,0.1-0.2h0.1c0.4-0.1,0.5-0.2,0.4-0.6c0-0.1,0.1-0.1,0.1-0.1
		c0.2,0,0.2-0.2,0.4-0.4h0.2v0.1c-0.1,0.2-0.1,0.5,0,0.7C42.8,85.2,42.7,85.3,42.7,85.3 M22.2,84.1h0.1c-0.1,0.2,0.1,0.4,0.1,0.6
		c0,0.1-0.1,0.4-0.2,0.4c-0.2,0.1-0.5-0.1-0.6-0.4C21.6,84.6,22,84.1,22.2,84.1 M29.1,84.4c-0.1,0.1-0.2,0-0.2-0.1
		c-0.2,0-0.1-0.1-0.1-0.2c0-0.1,0-0.1,0.1-0.2c0,0.1,0.1,0.1,0.1,0.2C29.1,84.1,29.2,84.2,29.1,84.4 M22.6,82.6
		c0,0.1,0.1,0.2,0.2,0.2c0.4-0.1,0.8-0.6,0.7-0.9c-0.1-0.2-0.2-0.4-0.2-0.6c0-0.4-0.1-0.5-0.4-0.7l-0.4,0.9c-0.1,0.1-0.1,0.2,0,0.4
		c0,0,0.1,0.1,0,0.2C22.5,82.2,22.6,82.4,22.6,82.6 M43.2,80.7c-0.2-0.2-0.5-0.5-0.4-0.8c0-0.1,0-0.2,0.1-0.1c0.1,0,0.2,0,0.2,0.1
		V80.7z M22.2,78.8c0.2,0.2,0,0.5,0.2,0.8c0,0.1-0.1,0.2-0.2,0.2c-0.2,0.2-0.4,0.1-0.5-0.1c-0.1,0-0.1-0.1,0-0.1
		c0.2-0.1,0.2-0.4,0.2-0.6v-0.2c0-0.1,0.1-0.1,0.1-0.1C22.2,78.7,22.2,78.7,22.2,78.8 M44.6,78.2c-0.2,0-0.2,0-0.4,0.1
		c-0.1,0.2-0.2,0.2-0.4,0.1c-0.2-0.2-0.2-0.2-0.1-0.5c0.2-0.2,0.2-0.5,0.2-0.7c0-0.1,0.1-0.1,0.1-0.1c0.1,0,0.1,0,0.1,0.1
		c0.1,0.1-0.1,0.2,0,0.4c0.2-0.1,0.2-0.1,0.4,0.1c0.1,0.1,0.1,0.4,0.2,0.5C44.7,78.3,44.6,78.3,44.6,78.2 M40.8,75.3
		c-0.2,0.2-0.2,0.2-0.2,0.5c0-0.2-0.2-0.5-0.2-0.8c0.2-0.1,0.4,0,0.5,0.1C40.9,75,41,75.1,40.8,75.3 M43.4,75.9l-0.1,0.8
		c0,0.2-0.1,0.4-0.4,0.4c0.1,0.1,0.1,0.2,0.1,0.4c0.1,0.2,0,0.5-0.1,0.5c-0.2,0.1-0.5,0-0.6-0.1c-0.1-0.2-0.2-0.5-0.1-0.7
		c0.2-0.6,0.1-1.2,0.1-1.8c-0.1-0.1-0.1-0.1,0-0.2c0.2-0.2,0.5-0.2,0.7-0.2c0.2,0,0.2,0,0.2-0.2c0-0.1,0.1-0.1,0.1-0.1
		c0.1,0,0.1,0,0.1,0.1C43.5,75,43.5,75.4,43.4,75.9 M40.6,73.8c0.1,0.1,0.2,0,0.2,0.2c0,0.1,0,0.2-0.2,0.2c-0.1,0.1-0.1-0.1-0.1-0.2
		C40.3,74,40.5,73.8,40.6,73.8 M42.7,72.8c-0.1-0.1-0.2-0.1-0.2-0.4c0-0.1,0.1-0.4,0.5-0.5c0.1,0.1,0,0.2,0,0.5
		C43,72.7,42.9,72.8,42.7,72.8 M43.6,71c0,0.2-0.2,0.1-0.4,0.1c-0.1,0.1-0.1,0.2-0.4,0.1c0-0.2,0.1-0.5-0.1-0.7
		c0-0.1,0.1-0.2,0.2-0.4c0.4,0,0.5,0.2,0.6,0.5V71z M30.4,68.4c0,0.1-0.1,0.1-0.2,0.1H30c0-0.1,0.1-0.2,0.2-0.2c0-0.1,0-0.1,0.1-0.1
		V68.4z M45.5,68.1c0-0.4,0.1-0.5,0.2-0.5c0.2-0.1,0.6,0.1,0.6,0.2c0.1,0.2-0.1,0.5-0.2,0.4c-0.2,0-0.4,0.1-0.6,0V68.1z M42.1,68.6
		c0.1-0.4,0.1-0.7,0.4-1.1c0.2-0.1,0.2-0.5,0.1-0.7c0-0.1-0.1-0.1,0-0.2c0.2-0.2,0.2-0.7,0.2-0.9c0-0.1,0.1-0.1,0.1-0.1
		c0.1,0,0.1,0,0.1,0.1c0,0.2,0.1,0.5,0.2,0.7v0.4c-0.1,0.4,0,0.4,0.4,0.6c0.4,0.1,0.5,0.2,0.4,0.7c0,0.1-0.1,0.2,0,0.4
		c0.1,0.2,0,0.5-0.2,0.5c-0.2,0-0.2,0-0.2,0.1v0.6c0,0.1-0.1,0.2-0.2,0.2c-0.1,0.1-0.1,0-0.2-0.1c0-0.1,0-0.2-0.1-0.1
		c-0.1,0-0.2,0-0.4,0.2c0,0.1,0,0.2-0.1,0.4c-0.4-0.4-0.2-0.8-0.5-1.2C42,68.9,42,68.8,42.1,68.6 M42.5,64.9c0-0.2,0.1-0.5,0-0.7
		c0-0.1,0.2-0.2,0.4-0.2c0.1,0.1,0.2,0,0.4-0.1c0.1-0.1,0.1,0,0.2,0.1c0.2,0.2,0.2,0.7,0.4,1.1c-0.1,0-0.2-0.1-0.5,0
		c0,0-0.1,0-0.1,0.1c-0.2,0.2-0.4,0.4-0.5,0.2C42.5,65.3,42.3,65,42.5,64.9 M43.6,59.8c-0.1,0.2-0.4,0.4-0.4,0.7
		c0,0.1-0.1,0.1-0.2,0.1c-0.2,0-0.5-0.4-0.2-0.6l0.4-0.6c0.1-0.1,0.2-0.1,0.4,0C43.6,59.6,43.6,59.7,43.6,59.8 M42.6,56.1
		c0.2-0.1,0.2-0.4,0.4-0.4c0.5,0.5,0.5,0.7,0,1.4c-0.2,0-0.2-0.1-0.2-0.2v-0.5C42.8,56.4,42.3,56.2,42.6,56.1 M41.5,55.2
		c0.1,0,0.1,0.1,0.1,0.1c0,0.1,0,0.1-0.1,0.1s-0.1-0.1-0.1-0.1C41.4,55.2,41.4,55.2,41.5,55.2 M42.9,54.4c0-0.4,0.1-0.6,0.2-0.8
		c0-0.1,0.1-0.1,0.2-0.1c0.2,0.1,0.4,0.4,0.7,0.4c0.1,0.1,0.1,0.1,0.1,0.4c0,0.2,0,0.2-0.1,0.4c-0.2,0-0.4,0.1-0.2,0.4
		c0,0.1-0.1,0.2-0.2,0.2c-0.1,0.1-0.2,0-0.4,0.1c0,0.1-0.1,0.2-0.2,0.1c-0.1-0.1-0.1-0.2-0.1-0.4C43,54.7,43,54.6,42.9,54.4
		 M63.3,10.2C63,10,62.9,9.9,62.7,9.7c0-0.2,0.2-0.1,0.4-0.4C63,9.2,62.9,9.1,62.9,9c0.4-0.4,0.7-0.8,1.1-1.1
		c-0.1-0.4-0.4-0.7-0.7-0.8c-0.1,0-0.1-0.1-0.1-0.1c-0.2-0.2-0.2-0.4-0.1-0.6c0.2-0.1,0.2-0.2,0-0.4l-0.2-0.2
		c0.1-0.1,0.2-0.2,0.4-0.4l-0.2-0.2c-0.4,0-0.7-0.1-1.1,0c-0.7,0-1.3,0.2-1.9,0.2c-0.5-0.1-0.6,0-1.1-0.2c-0.1,0-0.1-0.1-0.2-0.1
		c-0.2,0.1-0.6,0-0.8,0.1c-0.2,0.1-0.6,0-0.7,0.2c-0.2,0.4-0.5-0.2-0.7-0.1c0,0.1-0.1,0-0.2,0.1c-0.4,0-0.8,0.1-1.2,0.2
		c-0.2,0.1-0.4-0.1-0.5,0c-0.1,0.2-0.4,0.2-0.5,0.2c-0.4,0-0.6-0.1-0.8,0c-1.1,0.2-2.1,0.4-3.3,0.4h-0.2c-0.2,0.1-0.5,0.1-0.7,0
		c-0.1,0-0.4,0-0.5,0.1c-0.5,0.1-0.9,0.2-1.4,0.2c-0.2-0.1-0.5,0-0.6,0.2c-0.1,0.1-1.2,0.4-1.4,0.2c-0.1,0-0.1,0-0.2-0.1
		c-0.2-0.5-0.7-0.7-0.9-1.2c-0.1-0.2-0.4-0.5-0.7-0.5h-0.5c-0.2,0-0.4-0.2-0.6-0.4h-0.1l-1.3-0.4c-0.2,0-0.6,0-0.9-0.1l-1.1-0.4
		c-0.9-0.4-1.9-0.6-2.9-0.6c-0.4-0.1-0.7-0.2-1.1-0.2c-0.5,0.1-1.2,0.1-1.6,0.4c-0.2,0-0.4,0.2-0.7,0c0-0.1-0.1,0-0.2,0
		c-0.4,0.1-0.6,0.5-0.8,0.8C31.3,5,31,5.4,31.1,6v0.1c-0.1,0.2-0.2,0.5,0.1,0.7v0.2v0.8c0,0.1-0.1,0.2-0.1,0.2
		c-0.4-0.2-0.7,0.1-0.9,0h-0.7c-0.1,0-0.2,0-0.4,0.1c-0.2,0-0.5-0.1-0.6,0c-0.2-0.1-0.4,0-0.6,0.1c-0.1,0.1-0.2,0-0.2,0.1h-0.4
		c-0.9,0.2-1.9,0.4-2.8,0.2c-0.4,0-0.6,0.1-0.8,0.1c-0.2,0.1-0.6,0-0.6,0.4H23c-0.5,0-0.9,0.2-1.5,0.1c-0.2,0-0.5,0-0.8,0.1
		c-0.2,0-0.5,0.1-0.6,0c-0.4,0-0.5,0.2-0.7,0.2c-0.8,0.1-1.5,0.2-2.3,0.5c-0.2,0-0.5,0.1-0.7,0.1c-0.4-0.1-0.6,0-0.8,0
		c-0.1,0-0.2,0.1-0.5,0.1c-0.5,0-1.1,0.2-1.5,0.4c-0.2,0.1-0.6,0.2-0.9,0.1c-0.4-0.1-0.8-0.1-1.3-0.2c-0.4,0-0.6,0.1-0.8,0.4
		l-0.7,0.8c-0.2,0.1-0.2,0.2-0.2,0.4v0.2c-0.1,0.1-0.2,0.2-0.2,0.5c0.1,0.2,0,0.5,0.1,0.7c0.1,0.1,0.1,0.4,0,0.6
		C9,14.4,9.3,14.9,9,15.2c0.4,0.2,0.2,0.6,0.4,0.8c0.1,0.1,0.5,0.4,0,0.5v0.1c0.2,0.4,0.1,0.7,0.2,0.9c0.1,0.4,0.1,0.8,0,1.2
		c-0.1,0.5,0,0.9,0.4,1.3c0.4,0.2,0.6,0.6,0.7,0.9c0.2,0.5,0.4,0.5,0.9,0.6c0,0,0.1,0,0.1,0.1c0.1,0,0.1,0,0.1,0.1
		c0.1,0.6,0.1,0.6,0.5,0.9c0.1,0,0.1,0,0.1,0.1c0.1,0.4,0.4,0.5,0.5,0.7c0.4,0.5,0.7,0.8,1.2,1.2c0.5,0.4,0.9,0.5,1.4,0.4
		c0.2,0,0.6,0.1,0.9,0l0.5-0.1c0.4,0.1,0.7,0,1.1-0.1c0.1-0.1,0.4-0.2,0.6-0.4c0.6-0.2,1.3-0.1,1.9-0.4l0.1-0.1
		c0.4,0,0.5-0.1,0.8-0.1c-0.1-0.2,0.1-0.2,0.2-0.2c0.1-0.1,0.2-0.1,0.5-0.1c0.1,0,0.2,0,0.4-0.1l1.1-0.4c0.2-0.1,0.6-0.4,0.9-0.2
		c0.4-0.4,1.1,0,1.3-0.5l0.1-0.1c0.4,0.1,0.6,0,0.9,0.1c0.5,0.1,0.9,0,1.4-0.1c0.5-0.1,0.8-0.2,1.3-0.2l0.4-0.2
		c0.2-0.2,0.5-0.5,0.7-0.1c0.1,0.1,0.2,0,0.4,0.1c0.2,0.4,0.5,0.8,0.2,1.2C31,23.3,31,23.4,31,23.5c0.1,0.6,0.1,1.2,0.1,1.8
		c0,0.5,0,0.8-0.1,1.3c0,0.4,0.4,0.6,0.4,0.9c0,0.4-0.2,0.7-0.2,1.1c0,0.1,0.1,0.4,0.1,0.6c0,0.8,0.2,1.8,0.1,2.6v0.6
		c0.1,0.4,0.1,0.7,0,1.2c0,0.6,0,1.2-0.1,1.9v2.7c0,0.1,0,0.2,0.1,0.2c0.1,0.4,0,0.6,0,0.8c-0.1,0.5-0.2,0.8,0.1,1.2
		c0.2,0.5,0.2,0.7-0.1,1.1v0.1c-0.2,0.1-0.2,0.4,0,0.6c0.1,0.1,0.2,0.4-0.1,0.6v0.4c0,0.5-0.1,0.8-0.1,1.3c0,0.4-0.2,0.5-0.1,0.8
		c0,0.1-0.1,0-0.1,0c-0.1,0-0.2,0-0.2,0.1c-0.1,0.1-0.2,0.2-0.2,0.4c0,0.4-0.1,0.5-0.2,0.7c-0.1,0.4-0.4,0.6-0.4,0.9
		c0,0.1-0.1,0.2-0.2,0.5l-0.4,0.4c-0.2,0.2-0.6,0.5-0.6,0.9c-0.1,0.5-0.2,1.1-0.6,1.5c0,0.1-0.1,0.2-0.2,0.5
		c-0.2,0.6-0.5,1.1-0.8,1.5c-0.2,0.2-0.4,0.5-0.4,0.7v0.1c-0.4,0.2-0.2,0.6-0.4,0.8c0,0.5,0,0.8-0.5,1.1l-0.1,0.1
		c0.1,0.5-0.1,0.7-0.1,1.1c-0.1,0.5-0.4,0.9-0.6,1.3c-0.4,0.5-0.6,0.9-0.7,1.5c-0.1,0.1-0.1,0.4-0.2,0.6c-0.1,0.5-0.5,0.8-0.6,1.3
		c-0.2,0.8-0.6,1.5-0.8,2.2l-0.7,2.1c-0.1,0.4-0.1,0.7-0.1,0.9c0,0.6-0.1,0.9-0.5,1.5c-0.1,0.2-0.4,0.5-0.4,0.7s-0.1,0.5,0,0.8
		c-0.1,0.5-0.2,1.1-0.5,1.5c-0.2,0.7-0.4,1.4-0.5,2.1c0,0.4,0,0.7-0.1,1.1c-0.1,0.1-0.1,0.4-0.1,0.6c0,0.5-0.1,1.1-0.2,1.5v1.2
		c0,0.2,0,0.5-0.1,0.7c0,0.2,0.2,0.5,0,0.7c0.1,0.5-0.1,0.8-0.4,1.3c-0.2,0.6-0.4,1.2-0.2,1.8c0,0.4,0.1,0.6,0.1,0.9
		c0,0.1,0.1,0.2,0.1,0.2c0.2,0.2,0.5,0.4,0.2,0.6c0,0.1,0.1,0.4,0.2,0.5c0,0.1,0.1,0.1,0.1,0.2c0,0.6,0.2,1.1,0.5,1.4
		c0,0.2,0.1,0.4,0,0.5c-0.2,0.4-0.1,0.8,0.1,1.1c0.1,0.4,0.1,0.6,0,0.8c-0.1,0.2-0.2,0.5,0.1,0.6c0.1,0,0.1,0.1,0.1,0.1
		c-0.1,0.4,0.2,0.6,0.1,0.9c0,0.2,0.1,0.4,0.2,0.5c0.2,0.4,0.4,0.7,0.4,1.1c0,0.2,0.1,0.2,0.4,0.1h0.2c0.1,0.1,0.1,0.2,0.4,0.4
		c0.4,0.1,0.5,0.1,0.6-0.4v-0.1c-0.1-0.2,0-0.4,0.2-0.5c0.1,0,0.2-0.2,0.2-0.4c-0.1-0.1,0-0.5-0.2-0.6c-0.2-0.1-0.4-0.5-0.5-0.6
		c-0.4-0.5-0.4-0.7,0.1-1.1c0.2-0.2,0.2-0.2,0.1-0.7c0-0.2-0.1-0.4-0.2-0.5c0-0.1,0-0.1,0.1-0.2h0.1c0,0.1,0.1,0.2,0.2,0.2
		c0.2-0.1,0.2,0,0.2,0.2c0.1,0.4,0.1,0.8,0.2,1.1c0.1,0.2,0.5,0.4,0.7,0.5v0.1L23.8,90c-0.1,0.4-0.1,0.5,0.2,0.6h0.2l0.1,0.1
		c-0.4,0.2-0.2,0.5-0.1,0.6c0.1,0.1,0.1,0.2,0.1,0.5c0,0,0,0.1,0.1,0.2c0.1,0,0.2-0.1,0.4-0.2c0.1-0.2,0.2-0.5,0.1-0.7
		c0-0.4-0.2-0.7,0-0.9V90c-0.1-0.4-0.1-0.7-0.4-0.9c-0.2-0.1-0.5-0.4-0.5-0.6c0.1-0.5-0.1-0.8-0.4-1.1c-0.2-0.2-0.2-0.5-0.1-0.8
		c0.1-0.1,0.2-0.2,0.1-0.5c-0.1,0-0.1-0.1-0.1-0.2c0-0.2-0.2-0.5-0.5-0.5c-0.1-0.1-0.2,0-0.2-0.1c-0.1,0-0.2-0.4-0.2-0.6
		c0.1-0.1,0.4,0,0.5,0c0.1,0.1,0.4,0.2,0.5,0.2c0.2-0.1,0.4-0.1,0.4-0.4c0-0.2,0.1-0.5-0.1-0.5c-0.2,0-0.2-0.1-0.2-0.2
		c0.2-0.2,0.1-0.2-0.1-0.5c-0.2-0.1-0.5-0.2-0.8-0.1c-0.1,0.5-0.2,0.5-0.7,0.2h-0.1c-0.1-0.1-0.1-0.2,0-0.4c0.1,0,0.2-0.1,0.4-0.2
		h0.1c-0.1-0.1-0.4-0.1-0.5-0.2c0.1-0.1,0.2-0.4,0.2-0.5c0-0.2-0.1-0.2-0.2-0.4v-0.2c0-0.2,0-0.5-0.1-0.7c0-0.1,0-0.2,0.1-0.4
		c0.1,0,0.2-0.1,0.2-0.2c0.1-0.1,0.2-0.2,0.5-0.1c0.2,0.1,0.4,0,0.6-0.1c0.1-0.1,0.2-0.2,0-0.5c0-0.1,0.1-0.1,0.1-0.2
		c0.1,0,0.1-0.1,0.1-0.2c-0.2-0.4-0.5-0.8-0.5-1.3c0.1,0,0-0.1,0-0.1c-0.1-0.1-0.2-0.2-0.4-0.1c0,0.1-0.1,0.1-0.1,0.1
		c-0.2,0.1-0.5,0-0.5-0.2c0-0.2,0-0.5,0.4-0.5c0.1,0,0.2-0.1,0.5-0.1c0.1,0,0.2-0.2,0.2-0.5C23,76.3,23,76.2,22.9,76
		c-0.1-0.4,0.1-0.6,0.2-0.8c0.1-0.2,0.2-0.1,0.4-0.1s0.1-0.1,0.1-0.2c0-0.1,0.1-0.2,0-0.5c-0.1,0-0.1-0.1,0-0.2
		c0-0.2,0.1-0.1,0.2-0.1c0.1,0.1,0.1,0.1,0.2,0.1c0.1-0.2-0.2-0.4,0-0.5c0,0,0.1,0.1,0.2,0.1c0-0.4,0.2-0.6,0.5-0.8
		c0.2-0.1,0.4-0.2,0.4-0.5c0-0.1,0.1-0.2,0.2-0.2c0.1,0.1,0.1,0.1,0.2,0c0-0.1,0.1-0.2,0.1-0.5c0-0.1-0.1-0.2-0.2-0.4
		c0-0.1,0.1-0.2,0.1-0.2c0.2,0,0.4,0,0.2-0.1c-0.1-0.2-0.2-0.4-0.1-0.5c0.1-0.2,0.1-0.5,0.4-0.7c0.2-0.1,0.5-0.4,0.2-0.6
		c0-0.1,0.1-0.2,0.2-0.2c0.1-0.1,0.2-0.1,0.2-0.2c0-0.4,0.1-0.5,0.4-0.6c0.1-0.1,0.1-0.2,0.2-0.2c0.1-0.2,0-0.6,0.4-0.7v-0.1
		c-0.2-0.2,0-0.5,0.1-0.6c0.1-0.1,0.2-0.2,0.1-0.5c-0.1-0.2,0.4-0.4,0.2-0.7c-0.1,0,0-0.1,0-0.1c0.2-0.1,0.2-0.4,0.2-0.7
		c0-0.1,0-0.1,0.1-0.2c0.2-0.7,0.4-1.3,0.4-2c0-0.2,0-0.5,0.1-0.7c0-0.2,0-0.5,0.1-0.6c0.4-0.4,0.5-0.7,0.5-1.1
		c0.1-0.6,0.4-1.2,0.5-1.7c0.1-0.6,0.4-1.2,0.6-1.8v1.8c0,0.2,0,0.4,0.1,0.6c0.1,0.2-0.1,0.5-0.1,0.7c0,0.1,0,0.1,0.1,0.1
		c0.1,0.4,0,0.6,0,0.9c-0.1,0.6-0.1,1.2-0.2,1.8c0.1,0.5,0,0.9,0,1.3c0,0.5,0,0.5-0.2,1.1l-0.1,0.1c0,0.4-0.2,0.7,0.1,1.1
		c0,0-0.1,0.1-0.1,0.2c0.1,0.2,0.1,0.6,0.2,0.8c0,0.2,0,0.5-0.1,0.7c0.1,0,0.1-0.1,0.2-0.1c0,0.1,0.1,0.1,0.1,0.2
		c0,0.1-0.1,0.1-0.2,0.1c-0.1,0-0.1-0.1-0.1-0.1v-0.1v-0.1c-0.1,0-0.4,0.1-0.2-0.1c0-0.1-0.1-0.1-0.1-0.1c-0.1,0-0.1,0-0.1,0.1
		c-0.1,0.1,0,0.2,0,0.5c0.1,0.1,0.1,0.5,0,0.7c0,0.1,0,0.1,0.1,0.2c0.1,0,0.1,0.1,0.1,0.4c0.1,0.1,0.1,0.2-0.1,0.4
		c-0.2,0.1,0,0.4-0.1,0.5c-0.1,0.2,0.1,0.2,0.1,0.4l0.2,0.2c0.2,0.2,0.1,0.6,0.2,0.9v0.1c-0.2,0.1-0.2,0.2-0.2,0.5
		c0.1,0.2,0,0.4-0.2,0.5h-0.2c-0.2,0-0.2,0.2-0.1,0.4c0.1,0.1,0.1,0.2,0,0.4c-0.1,0.4-0.5,0.6-0.4,1.1v0.4C29,75,29,75.3,29,75.5
		v0.4c-0.1,0.5-0.2,0.9-0.2,1.5v0.2c-0.2,0.2-0.1,0.5-0.2,0.8c0,0.2,0,0.5-0.1,0.7c-0.1,0.2-0.2,0.7,0.1,0.9c0.1,0.2,0.1,0.4,0,0.6
		c0,0.1-0.1,0.2-0.1,0.4c-0.2,0.2-0.4,0.5-0.4,0.8c0,0.2,0,0.4,0.1,0.5c0.1,0.2,0,0.4-0.1,0.6c-0.2,0.7-0.1,1.1,0.5,1.8
		c0.1,0.1,0.1,0.2,0.1,0.4c0,0.1,0,0.2-0.1,0.2c-0.1,0-0.2,0-0.2,0.1c0,0.2-0.1,0.4-0.2,0.6c0,0-0.1,0-0.1,0.1
		c0.1,0.1,0.1,0.5,0.4,0.5c0.4,0,0.2,0.5,0.6,0.5v0.2c-0.1,0.1,0,0.2,0.1,0.2h0.1c0.4,0.2,0.4,0.2,0.1,0.6c-0.2,0.2-0.4,0.6-0.4,0.8
		c0,0.2,0.4,0.2,0.5,0.4c0,0.1,0.1,0.1,0.2,0.1c0.1-0.1,0.2,0,0.2,0.1c0.1,0.2,0.1,0.4-0.1,0.5c-0.1,0.1,0,0.2,0,0.2
		c0.1,0.1,0.1,0.1,0,0.2c-0.1,0.2-0.2,0.6-0.5,0.7c0.2,0.2,0.4,0.5,0.6,0.6c0,0,0.1,0.1,0.1,0.4c0,0.1-0.1,0.2,0,0.4
		c0.1,0,0.2-0.2,0.4-0.2c0.1-0.1,0.1-0.1,0.2,0v0.2c-0.1,0.1-0.2,0.2-0.2,0.4c-0.1,0.2-0.4,0.6-0.1,0.8c0.1,0.2,0.1,0.5,0.1,0.7
		c-0.1,0.2-0.2,0.5-0.1,0.7c0.1,0.5,0.1,1.1,0.4,1.7c0.1,0.2,0.1,0.4,0,0.6c-0.2,0.5-0.1,0.6-0.8,0.5l-0.5-0.1c-0.1-0.1,0-0.2,0-0.2
		c0-0.2,0.1-0.4-0.1-0.4C29,97,28.8,97,28.7,97.2c0,0.1-0.2,0.1-0.4,0.2c-0.4,0-0.6-0.2-0.8-0.4c0-0.5-0.4-0.5-0.6-0.5
		c-0.1,0-0.2,0-0.4-0.1c-0.1-0.1-0.2-0.4-0.2-0.6c-0.1-0.6-0.1-0.6-0.7-0.2l-0.6-0.2c-0.1,0-0.2-0.1-0.1-0.4c0-0.2-0.1-0.2-0.2-0.2
		c-0.2,0-0.4-0.1-0.5-0.4c-0.1,0-0.1,0.1-0.1,0.1v0.2c0,0.1-0.1,0.1-0.2,0h-0.2c-0.2-0.1-0.4-0.4-0.4-0.6c0.1-0.1,0-0.2,0.1-0.4
		c0.1,0.1,0.2,0.1,0.2,0.4c-0.1,0.1,0,0.1,0.2,0.1l0.4-0.5c-0.2-0.1-0.4-0.2-0.5-0.4c-0.1,0-0.2-0.2-0.1-0.4c0.2-0.2,0.1-0.5,0-0.7
		c0-0.1,0-0.1-0.2-0.2c-0.1,0-0.4,0.1-0.4,0.2c0,0.2-0.1,0.4,0,0.6c0,0.2,0.4,0.4,0.2,0.6c-0.1,0.2-0.4,0.4-0.6,0.5h-0.1
		c-0.1,0.1-0.2,0.1-0.2,0c0.1-0.5-0.4-0.8-0.2-1.3c-0.2-0.2-0.5-0.1-0.7,0s0,0.2,0,0.5c0.1,0.1,0.1,0.2,0.1,0.5
		c0,0.2,0.1,0.5,0.4,0.6c0.2,0.1,0.2,0.2,0.1,0.5c0,0.1,0,0.2,0.1,0.4c0.2,0.1,0.4,0.5,0.5,0.6c0.2,0.2,0.2,0.4,0.1,0.6
		c-0.4,0.2-0.2,0.6-0.1,0.9c0.1,0.1,0.2,0.4,0.5,0.5c0.5,0.4,0.7,0.8,1.1,1.3c0.4,0.4,0.6,0.8,1.1,0.8c0.1,0,0.2,0.1,0.2,0.1
		c0.1,0.4,0.5,0.4,0.7,0.5c0.4,0.2,0.9,0.2,1.3,0.6c0.2,0.1,0.4,0.1,0.6,0.1c0.7-0.2,1.5,0,2.2-0.2c0.4,0,0.8,0,1.1-0.4
		c0.2-0.1,0.5-0.2,0.7-0.2h0.7c0.1,0,0.2,0,0.4-0.1c0.2-0.2,0.5-0.5,0.6-0.8c0.1-0.6,0.5-1.1,0.6-1.7c0.1-0.2,0.2-0.5,0.5-0.6
		c0.2-0.1,0.4-0.2,0.5-0.5c0.2-0.2,0.4-0.5,0.7-0.6c0.2,0,0.5-0.2,0.4-0.5c0-0.2,0-0.5,0.2-0.5c0.5-0.2,1.1-0.8,1.3-1.2
		c0.2-0.2,0.2-0.6,0.7-0.6c0.1-0.2,0.4-0.2,0.5-0.4c0.4-0.1,0.4-0.4,0.5-0.6c0.2-0.5,0.7-0.8,0.6-1.4c0-0.1,0.1-0.1,0.1-0.2
		c0.2-0.2,0.5-0.6,0.5-1.1c-0.2-0.6,0.1-0.9,0.6-1.2c0.4-0.2,0.5-0.5,0.7-0.7c0.1-0.2,0.4-0.4,0.6-0.4c0.1,0.1,0.5,0.1,0.5-0.1
		c0.1-0.2,0.5-0.5,0.5-0.7c0.1-0.4,0.1-0.6-0.1-0.9c-0.4-0.4-0.4-0.9,0-1.5c0.1,0.4,0.4,0.6,0.7,0.7c0.1-0.5,0.2-0.8,0-1.2
		c-0.1-0.1-0.1-0.2,0-0.2c0.4-0.2,0.4-0.5,0.4-0.8c0.1-0.2,0.1-0.5,0.2-0.6c0.4-0.1,0.4-0.5,0.4-0.7c0-0.1,0.1-0.2,0.2-0.4
		c0-0.4,0.4-0.7-0.1-1.1v-0.2c-0.1,0-0.1,0.1-0.1,0.1c-0.2,0.4-0.2,0.4-0.6,0.2c-0.2-0.2-0.2-0.2-0.1-0.6l0.4-0.5
		c0.2-0.1,0.5-0.2,0.5-0.5c0-0.1,0.1-0.1,0.2-0.1c0.5-0.1,0.5-0.4,0.4-0.6s0-0.5-0.1-0.7c0-0.1,0.1-0.2,0.1-0.2
		c0.1-0.1,0.2,0,0.2,0.1c0.1,0,0.1,0,0.1,0.1c0.1,0,0.2,0.1,0.4,0c0-0.1,0-0.2-0.1-0.4c-0.1-0.1-0.4,0-0.5-0.2
		c0.5-0.2,0.6-0.6,0.4-0.9v-0.2c0-0.2-0.1-0.4-0.4-0.2h-0.1c0-0.4-0.5-0.2-0.5-0.5c0.1-0.1,0.4,0,0.2-0.4c0,0,0-0.1,0.1-0.1
		c0.4-0.4,0.4-0.8,0.4-1.2c0-0.5,0.1-0.9,0.4-1.3c0-0.1-0.1-0.1-0.2-0.1c-0.2-0.1-0.2-0.2-0.2-0.4c0.1-0.1,0.1-0.2,0.1-0.2
		c0.2-0.4,0.2-0.7,0.2-1.1C46,69.8,46,69.6,46,69.5c0.1-0.1,0.1-0.2,0-0.2c-0.2-0.1-0.4-0.2-0.5-0.5c-0.1,0-0.1-0.1,0-0.1l0.1-0.1
		c0.1,0,0.1,0.1,0.2,0.2c0.1,0.1,0.2,0.1,0.4,0c0-0.1,0.1-0.1,0.1-0.2l0.2-1.3c0-0.1,0-0.2-0.1-0.4c-0.2-0.1-0.2-0.4-0.4-0.5
		C45.9,66,46,66,46.3,65.9c0.1,0,0.2,0.1,0.4,0c-0.1-0.2-0.4-0.5-0.6-0.6c0.6-0.4,0.6-0.4,0.2-1.1c-0.1,0-0.2,0.1-0.4,0.1
		c-0.1,0.2-0.2,0.4-0.4,0.1c-0.1-0.1-0.1,0-0.2,0c-0.1,0.1-0.2,0.1-0.4,0c0-0.4,0.2-0.4,0.5-0.4c0.4-0.1,0.4-0.1,0.4-0.5
		c-0.1-0.2-0.1-0.4,0.1-0.4c0.5-0.1,0.5-0.4,0.6-0.7c-0.1-0.1-0.4-0.1-0.5-0.4c0.1-0.1,0.4,0.1,0.5,0c0-0.4-0.5-0.5-0.2-0.8
		c0,0,0-0.1-0.1-0.1c-0.4-0.1-0.4-0.4-0.1-0.6c0-0.1,0-0.2-0.1-0.4c0-0.4,0.1-0.6,0.2-0.7c0.1-0.1,0.2-0.1,0.4-0.2V59
		c-0.1-0.2-0.1-0.4,0-0.6v-0.2c0.1-0.2,0-0.4-0.4-0.2c-0.1,0.1-0.2,0-0.1-0.1c0.1-0.4,0-0.7,0.1-1.2c0.2-0.4,0.2-0.8,0.2-1.3
		c-0.1-0.5-0.1-1.1-0.2-1.7c-0.1-0.4,0-0.6,0.2-0.9c0.1-0.1,0.2-0.2,0.1-0.4c-0.1-0.1-0.2,0.1-0.4,0.1c-0.1,0-0.1,0.1-0.2,0
		c0.2-0.2,0.2-0.5,0.4-0.7c0-0.1,0.1-0.1,0-0.4c-0.2-0.4-0.2-0.4-0.2-0.7c0.1-0.5,0-0.8,0.1-1.3v-0.1c-0.1-0.2-0.1-0.5-0.1-0.7
		c0-0.4,0-0.6-0.1-0.8c0-0.5-0.1-0.9,0-1.3c0.1-0.5,0.1-0.8,0-1.2c-0.1-0.2-0.1-0.5,0-0.7c0.1-0.4,0-0.6,0-0.8
		c-0.1-0.2-0.1-0.5,0-0.6c0.1-0.6,0-1.2,0.2-1.7v-0.1c0-0.4,0.1-0.8,0.4-1.1c0.1-0.1,0.1-0.2,0.1-0.4c0-0.1,0-0.2,0.1-0.2
		c0.2-0.2,0.1-0.6,0.4-0.8v-0.2c-0.4-0.2-0.4-0.6-0.5-0.8c-0.1-0.5-0.4-0.8,0.1-1.3v-0.2c0-0.2-0.1-0.5,0.1-0.7
		c0.1-0.1,0-0.2-0.2-0.4c-0.2,0-0.2,0.2-0.4,0.2c-0.2-0.2-0.2-0.4,0-0.6c0.1-0.1,0.2-0.1,0.2-0.2c0.1-0.1,0.1-0.2,0-0.4
		c-0.2-0.1-0.2-0.4-0.4-0.6c-0.1-0.1-0.2-0.5-0.1-0.6v-0.9c0.1-0.4-0.1-0.7-0.1-1.2c0-0.6,0-1.2,0.1-1.8c0.1-0.5-0.1-0.9-0.2-1.3
		c-0.1-0.5-0.1-1.1-0.1-1.5c0.1-0.7,0.1-0.7,0-1.5c-0.1,0,0-0.1,0-0.1v-0.9c0-0.1-0.1-0.2-0.2-0.2c-0.1-0.1,0.1-0.2,0-0.4
		c-0.4-0.5-0.2-1.1,0-1.5c-0.1-0.2-0.4-0.4-0.5-0.6v-0.1c0.2-0.1,0.4-0.4,0.5-0.6c0.4,0.1,0.4-0.2,0.5-0.5c0.1-0.4,0.2-0.4,0.6-0.4
		c0.2-0.1,0.5-0.1,0.7-0.2c0.1,0,0.2-0.1,0.2-0.1c0.5,0.1,1.1-0.1,1.5,0c0.2,0,0.6-0.1,0.7-0.4c0.2-0.4,0.6-0.5,1.1-0.6
		c0.4,0,0.7,0,0.9-0.4c0.1,0,0.2-0.1,0.2,0c0.2,0.1,0.5-0.1,0.7-0.1c0.4,0,0.6-0.1,0.9-0.2c0-0.2,0.4-0.4,0.5-0.6
		c0-0.6,0.5-0.5,0.8-0.6c0.2-0.1,0.6-0.1,0.8-0.1h0.1c0.1-0.1,0.2-0.2,0.2-0.4c0.1-0.1-0.1-0.1-0.1-0.2c-0.1,0-0.2,0-0.4-0.2
		l0.4-0.4c0.1-0.1-0.1-0.2,0-0.4h-0.1c-0.4,0.1-0.8,0-0.9,0.5c0,0.1-0.2,0.2-0.2,0.2c-0.2,0-0.6,0-0.8,0.1c-0.2-0.1-0.1-0.8,0.1-0.8
		c0.2-0.1,0.5-0.4,0.8-0.4c0.1,0,0.4,0.1,0.6,0c0,0,0.2,0,0.1-0.1c-0.1-0.1,0-0.2,0-0.4c-0.1-0.2,0-0.4,0.2-0.4c0.1,0,0.4,0,0.5-0.1
		c0-0.1,0.1,0,0.2,0v0.5c-0.1,0.1-0.2,0.2-0.4,0.1c-0.2-0.1-0.4,0.1-0.4,0.2c0,0.1,0.2,0.1,0.4,0.4c0.1,0.2,0.4,0.2,0.5,0.1
		c0.2-0.2,0.4-0.5,0.6-0.6c0.1-0.1,0.2-0.2,0.4-0.1c0.4,0.2,0.6,0,0.9-0.1c0.1,0,0.2,0,0.2-0.2c0-0.1-0.1-0.1-0.2-0.1h-0.4
		c-0.6,0-0.6,0-0.6-0.5c0-0.1,0-0.2,0.1-0.2c0.1-0.1,0.2,0.2,0.4,0.1c0.4-0.1,0.5,0,0.6,0.2c0.1,0.1,0.2,0,0.4,0
		C59,13,59,13,59,12.8c0-0.4,0.2-0.6,0.6-0.6l0.4-0.2c0-0.4,0.2-0.4,0.5-0.4c0.5-0.1,0.8-0.4,1.3-0.5c0.2,0,0.4-0.2,0.6-0.2H63
		c0.2,0,0.4-0.1,0.5-0.4C63.7,10.4,63.7,10.2,63.3,10.2"/>
</g>
</svg>
